<svg width="800" height="560" viewBox="0 0 800 560" fill="none" xmlns="http://www.w3.org/2000/svg">
  <rect width="800" height="560" rx="42" fill="#F7EFE7"/>
  <rect x="58" y="64" width="684" height="310" rx="30" fill="#FFFDFC"/>
  <rect x="96" y="98" width="275" height="196" rx="18" fill="#F0E6DA"/>
  <rect x="400" y="98" width="304" height="196" rx="18" fill="#F0E6DA"/>
  <path d="M118 274H350M422 274H682" stroke="#D8C6B8" stroke-width="10" stroke-linecap="round"/>
  <path d="M110 150H350M414 150H690" stroke="#FFFFFF" stroke-width="18" stroke-linecap="round" opacity="0.9"/>
  <rect x="92" y="392" width="616" height="70" rx="35" fill="#900C3F"/>
  <rect x="132" y="412" width="142" height="30" rx="15" fill="#FF6847"/>
  <rect x="300" y="412" width="104" height="30" rx="15" fill="#F0E6DA"/>
  <rect x="432" y="412" width="176" height="30" rx="15" fill="#F0E6DA"/>
  <circle cx="650" cy="158" r="46" fill="#FF6847"/>
  <path d="M154 332C236 286 330 274 438 298" stroke="#900C3F" stroke-width="18" stroke-linecap="round"/>
</svg>
