<svg width="76" height="76" viewBox="0 0 76 76" fill="none" xmlns="http://www.w3.org/2000/svg">
<path d="M24.9375 42.75C25.8823 42.75 26.7885 42.3747 27.4566 41.7066C28.1247 41.0385 28.5 40.1323 28.5 39.1875C28.5 38.2427 28.1247 37.3365 27.4566 36.6684C26.7885 36.0003 25.8823 35.625 24.9375 35.625C23.9927 35.625 23.0865 36.0003 22.4184 36.6684C21.7503 37.3365 21.375 38.2427 21.375 39.1875C21.375 40.1323 21.7503 41.0385 22.4184 41.7066C23.0865 42.3747 23.9927 42.75 24.9375 42.75ZM28.5 51.0625C28.5 52.0073 28.1247 52.9135 27.4566 53.5816C26.7885 54.2497 25.8823 54.625 24.9375 54.625C23.9927 54.625 23.0865 54.2497 22.4184 53.5816C21.7503 52.9135 21.375 52.0073 21.375 51.0625C21.375 50.1177 21.7503 49.2115 22.4184 48.5434C23.0865 47.8753 23.9927 47.5 24.9375 47.5C25.8823 47.5 26.7885 47.8753 27.4566 48.5434C28.1247 49.2115 28.5 50.1177 28.5 51.0625ZM38 54.625C38.9448 54.625 39.851 54.2497 40.5191 53.5816C41.1872 52.9135 41.5625 52.0073 41.5625 51.0625C41.5625 50.1177 41.1872 49.2115 40.5191 48.5434C39.851 47.8753 38.9448 47.5 38 47.5C37.0552 47.5 36.149 47.8753 35.4809 48.5434C34.8128 49.2115 34.4375 50.1177 34.4375 51.0625C34.4375 52.0073 34.8128 52.9135 35.4809 53.5816C36.149 54.2497 37.0552 54.625 38 54.625ZM41.5625 39.1875C41.5625 40.1323 41.1872 41.0385 40.5191 41.7066C39.851 42.3747 38.9448 42.75 38 42.75C37.0552 42.75 36.149 42.3747 35.4809 41.7066C34.8128 41.0385 34.4375 40.1323 34.4375 39.1875C34.4375 38.2427 34.8128 37.3365 35.4809 36.6684C36.149 36.0003 37.0552 35.625 38 35.625C38.9448 35.625 39.851 36.0003 40.5191 36.6684C41.1872 37.3365 41.5625 38.2427 41.5625 39.1875ZM51.0625 42.75C52.0073 42.75 52.9135 42.3747 53.5816 41.7066C54.2497 41.0385 54.625 40.1323 54.625 39.1875C54.625 38.2427 54.2497 37.3365 53.5816 36.6684C52.9135 36.0003 52.0073 35.625 51.0625 35.625C50.1177 35.625 49.2115 36.0003 48.5434 36.6684C47.8753 37.3365 47.5 38.2427 47.5 39.1875C47.5 40.1323 47.8753 41.0385 48.5434 41.7066C49.2115 42.3747 50.1177 42.75 51.0625 42.75ZM9.5 21.375C9.5 18.2256 10.7511 15.2051 12.9781 12.9781C15.2051 10.7511 18.2256 9.5 21.375 9.5H54.625C57.7744 9.5 60.7949 10.7511 63.0219 12.9781C65.2489 15.2051 66.5 18.2256 66.5 21.375V54.625C66.5 57.7744 65.2489 60.7949 63.0219 63.0219C60.7949 65.2489 57.7744 66.5 54.625 66.5H21.375C18.2256 66.5 15.2051 65.2489 12.9781 63.0219C10.7511 60.7949 9.5 57.7744 9.5 54.625V21.375ZM21.375 14.25C19.4853 14.25 17.6731 15.0007 16.3369 16.3369C15.0007 17.6731 14.25 19.4853 14.25 21.375V23.75H61.75V21.375C61.75 19.4853 60.9993 17.6731 59.6631 16.3369C58.3269 15.0007 56.5147 14.25 54.625 14.25H21.375ZM14.25 54.625C14.25 56.5147 15.0007 58.3269 16.3369 59.6631C17.6731 60.9993 19.4853 61.75 21.375 61.75H54.625C56.5147 61.75 58.3269 60.9993 59.6631 59.6631C60.9993 58.3269 61.75 56.5147 61.75 54.625V28.5H14.25V54.625Z" fill="white"/>
</svg>
