<svg width="55" height="55" viewBox="0 0 55 55" fill="none" xmlns="http://www.w3.org/2000/svg">
<path d="M38.9583 41.2501H16.0416V13.7501H38.9583V16.0417H43.5416V6.87508C43.5416 4.35425 41.4791 2.29175 38.9583 2.29175H16.0416C13.5208 2.29175 11.4583 4.35425 11.4583 6.87508V48.1251C11.4583 50.6459 13.5208 52.7084 16.0416 52.7084H38.9583C41.4791 52.7084 43.5416 50.6459 43.5416 48.1251V38.9584H38.9583V41.2501ZM46.7041 22.0459L48.125 25.2084L49.5458 22.0459L52.7083 20.6251L49.5458 19.2042L48.125 16.0417L46.7041 19.2042L43.5416 20.6251L46.7041 22.0459Z" fill="white"/>
<path d="M36.6667 18.3333L33.8021 24.6353L27.5 27.4999L33.8021 30.3645L36.6667 36.6666L39.5312 30.3645L45.8333 27.4999L39.5312 24.6353L36.6667 18.3333ZM48.125 29.7916L46.7042 32.9541L43.5417 34.3749L46.7042 35.7958L48.125 38.9583L49.5458 35.7958L52.7083 34.3749L49.5458 32.9541L48.125 29.7916Z" fill="white"/>
</svg>
