<svg width="88" height="88" viewBox="0 0 88 88" fill="none" xmlns="http://www.w3.org/2000/svg">
<rect width="88" height="88" rx="20" fill="#900C3F"/>
<path d="M14.6667 22C14.6667 17.9666 17.9667 14.6666 22 14.6666C26.0333 14.6666 29.3333 17.9666 29.3333 22C29.3333 26.0333 26.0333 29.3333 22 29.3333C17.9667 29.3333 14.6667 26.0333 14.6667 22ZM47.6667 80.6666C45.6133 80.6666 43.9267 79.0533 43.8167 77L42.1667 44L29.3333 40.3333H7.33333C5.31666 40.3333 3.66666 38.6833 3.66666 36.6666C3.66666 34.65 5.31666 33 7.33333 33H25.6667L48.62 16.61C50.16 15.51 52.2867 15.7666 53.5333 17.1966C54.9267 18.8466 54.6333 21.3033 52.8733 22.55L40.8467 31.1666H51.3333L77.33 16.17C78.118 15.6834 79.0633 15.5198 79.969 15.7134C80.8746 15.9069 81.6705 16.4426 82.1908 17.2088C82.711 17.9749 82.9153 18.9124 82.7612 19.8255C82.607 20.7387 82.1062 21.5571 81.3633 22.11L53.1667 44L51.5167 77C51.4067 79.0533 49.72 80.6666 47.6667 80.6666Z" fill="white"/>
</svg>
