<svg width="69" height="56" viewBox="0 0 69 56" fill="none" xmlns="http://www.w3.org/2000/svg">
<path d="M66.4125 0H45.7125C44.2911 0 42.3004 0.8365 41.2965 1.855L15.6319 27.8915C15.3915 28.1353 15.2007 28.4247 15.0706 28.7433C14.9405 29.0619 14.8735 29.4034 14.8735 29.7483C14.8735 30.0931 14.9405 30.4346 15.0706 30.7532C15.2007 31.0718 15.3915 31.3612 15.6319 31.605L37.8465 54.1415C38.0868 54.3854 38.3721 54.5789 38.6861 54.711C39.0002 54.843 39.3368 54.9109 39.6767 54.9109C40.0166 54.9109 40.3532 54.843 40.6673 54.711C40.9813 54.5789 41.2666 54.3854 41.5069 54.1415L67.1715 28.105C68.1789 27.083 69 25.067 69 23.625V2.625C69 1.92881 68.7274 1.26113 68.2421 0.768845C67.7569 0.276562 67.0987 0 66.4125 0ZM53.475 21C52.7952 20.9998 52.122 20.8637 51.4941 20.5996C50.8661 20.3354 50.2955 19.9484 49.815 19.4606C49.3344 18.9727 48.9533 18.3937 48.6934 17.7564C48.4334 17.1191 48.2997 16.4362 48.3 15.7465C48.3002 15.0568 48.4343 14.374 48.6947 13.7369C48.9551 13.0998 49.3366 12.521 49.8174 12.0335C50.2983 11.546 50.8691 11.1593 51.4972 10.8956C52.1254 10.6319 52.7986 10.4963 53.4784 10.4965C54.8514 10.497 56.1679 11.0507 57.1384 12.0359C58.1089 13.0212 58.6539 14.3571 58.6534 15.75C58.653 17.1429 58.1071 18.4785 57.136 19.463C56.1648 20.4476 54.8479 21.0005 53.475 21Z" fill="white"/>
<path d="M6.89998 29.75L36.225 0H31.9125C30.4911 0 28.5004 0.8365 27.4965 1.855L1.83193 27.8915C1.59149 28.1353 1.40074 28.4247 1.27061 28.7433C1.14047 29.0619 1.07349 29.4034 1.07349 29.7483C1.07349 30.0931 1.14047 30.4346 1.27061 30.7532C1.40074 31.0718 1.59149 31.3612 1.83193 31.605L24.0465 54.1415C24.2868 54.3854 24.5721 54.5789 24.8861 54.711C25.2002 54.843 25.5368 54.9109 25.8767 54.9109C26.2166 54.9109 26.5532 54.843 26.8673 54.711C27.1813 54.5789 27.4666 54.3854 27.7069 54.1415L29.3284 52.4965L6.89998 29.75Z" fill="white"/>
</svg>
