<svg width="31" height="31" viewBox="0 0 31 31" fill="none" xmlns="http://www.w3.org/2000/svg">
<path d="M15.4354 27.1896L14.8541 15.5L10.3333 14.2083H2.5833C2.21732 14.2083 1.91077 14.0843 1.66363 13.8363C1.41649 13.5883 1.29249 13.2817 1.29163 12.9166C1.29077 12.5515 1.41477 12.245 1.66363 11.997C1.91249 11.749 2.21905 11.625 2.5833 11.625H9.04163L17.1145 5.84476C17.3944 5.65101 17.6958 5.57566 18.0187 5.61872C18.3416 5.66177 18.6215 5.81247 18.8583 6.0708C19.0951 6.37219 19.192 6.70027 19.1489 7.05505C19.1059 7.40983 18.9336 7.70605 18.6323 7.94372L14.402 10.9791H18.0833L27.3187 5.65101C27.5555 5.50032 27.8195 5.45726 28.1105 5.52184C28.4016 5.58643 28.6651 5.75865 28.901 6.03851C29.1378 6.29684 29.2347 6.59307 29.1916 6.92718C29.1486 7.26129 28.9871 7.53555 28.7073 7.74997L18.7291 15.5L18.1479 27.1896C18.1264 27.534 17.9864 27.8246 17.7281 28.0614C17.4698 28.2982 17.1361 28.4166 16.727 28.4166C16.3826 28.4166 16.0868 28.2982 15.8397 28.0614C15.5925 27.8246 15.4578 27.534 15.4354 27.1896ZM7.74996 10.3333C7.03955 10.3333 6.4316 10.0806 5.92613 9.57509C5.42066 9.06962 5.16749 8.46125 5.16663 7.74997C5.16577 7.03869 5.41894 6.43075 5.92613 5.92613C6.43332 5.42152 7.04127 5.16836 7.74996 5.16663C8.45866 5.16491 9.06703 5.41808 9.57509 5.92613C10.0831 6.43419 10.3359 7.04213 10.3333 7.74997C10.3307 8.4578 10.078 9.06618 9.57509 9.57509C9.0722 10.084 8.46382 10.3367 7.74996 10.3333Z" fill="white"/>
</svg>
