<svg width="26" height="28" viewBox="0 0 26 28" fill="none" xmlns="http://www.w3.org/2000/svg">
<path d="M12 0.25V1.5L11.0375 0.7L6.70001 5.875L10.75 8.375V5.45L10.475 5.25L12 3.45V27.75H14.5V15.55L16.9125 13.1375C20.125 13.6375 23.4125 11.95 25.325 10.0375L23.55 8.2625C22.125 9.7 19.125 11.0125 17 10.575L14.5 8.05V0.25M18.25 4C17.587 4 16.9511 4.26339 16.4822 4.73223C16.0134 5.20107 15.75 5.83696 15.75 6.5C15.75 7.16304 16.0134 7.79893 16.4822 8.26777C16.9511 8.73661 17.587 9 18.25 9C18.9131 9 19.5489 8.73661 20.0178 8.26777C20.4866 7.79893 20.75 7.16304 20.75 6.5C20.75 5.83696 20.4866 5.20107 20.0178 4.73223C19.5489 4.26339 18.9131 4 18.25 4ZM10.75 8.7L5.87501 13.575C3.56251 15.875 2.38751 17.5625 0.825012 21.7L3.17501 22.575C4.42501 19.25 5.32501 17.925 6.83751 16.3L8.52501 17.9875L2.33751 24.175L4.11251 25.95L10.75 19.3V8.7Z" fill="white"/>
</svg>
