<svg width="62" height="62" viewBox="0 0 62 62" fill="none" xmlns="http://www.w3.org/2000/svg">
<path d="M46.5 38.7501H15.5L5.16666 49.0834V7.75008C5.16666 7.06494 5.43884 6.40786 5.9233 5.92339C6.40777 5.43892 7.06485 5.16675 7.75 5.16675H46.5C47.1851 5.16675 47.8422 5.43892 48.3267 5.92339C48.8112 6.40786 49.0833 7.06494 49.0833 7.75008V36.1667C49.0833 36.8519 48.8112 37.509 48.3267 37.9934C47.8422 38.4779 47.1851 38.7501 46.5 38.7501ZM59.4167 23.2501V59.4167L49.0833 49.0834H20.6667C19.9815 49.0834 19.3244 48.8112 18.84 48.3268C18.3555 47.8423 18.0833 47.1852 18.0833 46.5001V43.9167H54.25V20.6667H56.8333C57.5185 20.6667 58.1756 20.9389 58.66 21.4234C59.1445 21.9079 59.4167 22.5649 59.4167 23.2501ZM21.1575 10.3334C18.91 10.3334 17.1017 10.8501 15.7067 11.8576C14.3633 12.9167 13.6917 14.3892 13.7175 16.4301L13.7433 16.5076H18.7292C18.755 15.7326 18.9875 15.1384 19.4525 14.7251C19.9309 14.3284 20.5362 14.1174 21.1575 14.1309C21.9583 14.1309 22.63 14.3892 23.095 14.8542C23.56 15.3451 23.7667 16.0167 23.7667 16.7917C23.7667 17.6184 23.5858 18.3159 23.1725 18.9101C22.8108 19.5042 22.2683 20.0209 21.5967 20.4342C20.2792 21.3126 19.375 22.0876 18.8842 22.7851C18.3675 23.4567 18.0833 24.5417 18.0833 25.8334H23.25C23.25 25.0326 23.3533 24.3867 23.5858 23.9217C23.8183 23.4567 24.2575 22.9917 24.9033 22.5784C26.0658 21.9584 27.0217 21.2092 27.7708 20.1759C28.52 19.1426 28.9075 18.0834 28.9075 16.7917C28.9075 14.8284 28.21 13.2526 26.815 12.0901C25.4458 10.9276 23.56 10.3334 21.1575 10.3334ZM18.0833 28.4167V33.5834H23.25V28.4167H18.0833ZM33.5833 33.5834H38.75V28.4167H33.5833V33.5834ZM33.5833 10.3334V25.8334H38.75V10.3334H33.5833Z" fill="white"/>
</svg>
