<svg width="73" height="73" viewBox="0 0 73 73" fill="none" xmlns="http://www.w3.org/2000/svg">
<path d="M51.7083 31.9375V21.2917C51.7083 20.485 51.3879 19.7113 50.8175 19.1409C50.247 18.5705 49.4734 18.25 48.6667 18.25H12.1667C11.36 18.25 10.5863 18.5705 10.0159 19.1409C9.44546 19.7113 9.125 20.485 9.125 21.2917V51.7083C9.125 52.515 9.44546 53.2887 10.0159 53.8591C10.5863 54.4295 11.36 54.75 12.1667 54.75H48.6667C49.4734 54.75 50.247 54.4295 50.8175 53.8591C51.3879 53.2887 51.7083 52.515 51.7083 51.7083V41.0625L63.875 53.2292V19.7708L51.7083 31.9375Z" fill="white"/>
</svg>
