<svg width="15" height="15" viewBox="0 0 15 15" fill="none" xmlns="http://www.w3.org/2000/svg">
<path d="M7.13056 2.38137C7.27955 1.92283 7.92826 1.92283 8.07725 2.38137L9.05654 5.39532C9.12317 5.60039 9.31427 5.73923 9.52989 5.73923H12.699C13.1811 5.73923 13.3816 6.35619 12.9915 6.63959L10.4277 8.50231C10.2532 8.62905 10.1802 8.8537 10.2469 9.05876L11.2262 12.0727C11.3751 12.5313 10.8503 12.9126 10.4603 12.6292L7.89645 10.7664C7.72201 10.6397 7.4858 10.6397 7.31136 10.7664L4.74753 12.6292C4.35748 12.9126 3.83266 12.5313 3.98165 12.0727L4.96094 9.05877C5.02757 8.8537 4.95458 8.62905 4.78014 8.50232L2.21631 6.63959C1.82625 6.35619 2.02672 5.73923 2.50885 5.73923H5.67792C5.89354 5.73923 6.08463 5.60039 6.15126 5.39533L7.13056 2.38137Z" fill="white"/>
</svg>
