<svg width="326" height="41" viewBox="0 0 326 41" fill="none" xmlns="http://www.w3.org/2000/svg">
<path d="M32.21 10.12C32.13 10.12 32.09 10.0533 32.09 9.92C32.09 9.81333 32.17 9.57333 32.33 9.2C32.49 8.82667 32.65 8.44 32.81 8.04C32.9967 7.61333 33.17 7.22667 33.33 6.88C33.49 6.50667 33.57 6.26667 33.57 6.16C33.57 6.05333 33.3167 5.93333 32.81 5.8C32.3033 5.64 31.6233 5.49333 30.77 5.36C29.9433 5.2 28.9567 5.05333 27.81 4.92C26.69 4.78666 25.5167 4.66666 24.29 4.56C16.6367 13.7067 11.9033 21.3467 10.09 27.48C9.82334 28.36 9.69 29.1333 9.69 29.8C9.69 30.5733 9.91667 30.96 10.37 30.96C10.5033 30.96 10.7167 30.92 11.01 30.84C11.33 30.7867 11.57 30.76 11.73 30.76C11.9167 30.76 12.01 30.7867 12.01 30.84C12.01 30.92 11.8767 31.0133 11.61 31.12C11.3433 31.2267 11.0233 31.32 10.65 31.4C10.3033 31.5067 9.95667 31.5867 9.61 31.64C9.29 31.6933 9.07667 31.72 8.97 31.72C7.79667 31.72 7.21 31.12 7.21 29.92C7.21 27.76 9.07667 23.6933 12.81 17.72C15.53 13.3467 18.2633 9.41333 21.01 5.92C21.01 5.65333 21.3033 5.14667 21.89 4.4C20.9033 4.34667 19.93 4.30667 18.97 4.28C18.0367 4.22667 17.1167 4.2 16.21 4.2C11.3033 4.2 7.57 4.62666 5.01 5.48C2.45 6.33333 1.17 7.52 1.17 9.04C1.17 10.1867 1.65 11.32 2.61 12.44C3.59667 13.5333 4.86334 14.4133 6.41 15.08C6.83667 15.2667 7.05 15.4267 7.05 15.56C7.05 15.64 6.98334 15.68 6.85 15.68C6.66334 15.68 6.42334 15.6267 6.13 15.52C2.13 14.2133 0.130004 12.24 0.130004 9.6C0.130004 9.22667 0.19667 8.8 0.330004 8.32C1.53 4.32 5.65 2.32 12.69 2.32C15.1967 2.32 18.5167 2.69333 22.65 3.44C22.7567 3.28 22.8767 3.10667 23.01 2.92C23.1433 2.70667 23.3167 2.50667 23.53 2.32C23.77 2.13333 24.05 1.97333 24.37 1.84C24.7167 1.70667 25.13 1.64 25.61 1.64C26.1433 1.64 26.41 1.76 26.41 2C26.41 2.05333 25.93 2.65333 24.97 3.8C28.9967 4.44 32.09 4.76 34.25 4.76C34.5167 4.76 34.77 4.70667 35.01 4.6C35.25 4.49333 35.4633 4.37333 35.65 4.24C35.8367 4.08 35.9833 3.94666 36.09 3.84C36.2233 3.73333 36.3167 3.68 36.37 3.68C36.53 3.68 36.69 3.77333 36.85 3.96C37.0367 4.12 37.13 4.29333 37.13 4.48C37.13 4.56 37.0367 4.68 36.85 4.84C36.6633 4.97333 36.4367 5.14667 36.17 5.36C35.93 5.57333 35.65 5.81333 35.33 6.08C35.0367 6.34667 34.77 6.64 34.53 6.96L32.85 9.48C32.5833 9.90667 32.37 10.12 32.21 10.12ZM29.7169 17.2C29.7169 16.9333 29.6235 16.8 29.4369 16.8C29.1969 16.8 28.7969 17.04 28.2369 17.52C27.7035 17.9733 27.1169 18.5333 26.4769 19.2C25.8369 19.84 25.2102 20.5333 24.5969 21.28C24.0102 22 23.5569 22.6267 23.2369 23.16C23.9302 22.6267 24.7302 22.1067 25.6369 21.6C26.5435 21.0933 27.5702 20.5867 28.7169 20.08C29.3835 18.6667 29.7169 17.7067 29.7169 17.2ZM28.5169 20.6C27.9035 20.8667 27.2369 21.2133 26.5169 21.64C25.8235 22.0667 25.1435 22.5333 24.4769 23.04C23.8369 23.52 23.2502 24.0133 22.7169 24.52C22.2102 25.0267 21.8369 25.48 21.5969 25.88C21.9969 26.4133 22.4769 26.68 23.0369 26.68C24.7702 26.68 26.5969 24.6533 28.5169 20.6ZM23.7569 17.2C23.4369 17.3333 23.0902 17.4533 22.7169 17.56C22.3969 17.6667 22.1569 17.6667 21.9969 17.56C21.8635 17.4533 21.8102 17.3333 21.8369 17.2C21.8369 17.0933 22.5302 16.8267 23.9169 16.4H24.0369C24.8635 14.48 25.7835 12.68 26.7969 11C27.8369 9.32 28.9302 7.82667 30.0769 6.52C31.2235 5.18667 32.4102 4.08 33.6369 3.2C34.8635 2.29333 36.0902 1.65333 37.3169 1.28C38.6502 0.906666 39.7702 0.906666 40.6769 1.28C41.6102 1.62667 42.0502 2.36 41.9969 3.48C41.9169 4.33333 41.4902 5.33333 40.7169 6.48C39.9435 7.62667 38.8369 8.8 37.3969 10C35.9835 11.2 34.2502 12.3867 32.1969 13.56C30.1702 14.7333 27.8635 15.7733 25.2769 16.68C24.8769 17.5333 24.4769 18.4667 24.0769 19.48C23.6769 20.4933 23.2769 21.48 22.8769 22.44C26.6635 17.6133 29.3302 15.2 30.8769 15.2C31.4635 15.2 31.7569 15.52 31.7569 16.16C31.7569 16.9333 31.4769 18.04 30.9169 19.48C31.4769 19.2133 31.8235 19.08 31.9569 19.08C32.0635 19.08 32.1169 19.12 32.1169 19.2C32.1169 19.3867 31.9702 19.52 31.6769 19.6C31.3835 19.68 31.0502 19.8 30.6769 19.96C29.9569 21.6933 29.1969 23.0933 28.3969 24.16C27.6235 25.2 26.7302 25.9067 25.7169 26.28C25.1569 26.4933 24.7302 26.68 24.4369 26.84C24.1702 27 23.9435 27.1333 23.7569 27.24C23.5969 27.3467 23.4369 27.4267 23.2769 27.48C23.1435 27.5333 22.9435 27.56 22.6769 27.56C21.9569 27.56 21.3835 27.3867 20.9569 27.04C20.7969 27.2533 20.6769 27.36 20.5969 27.36C20.3835 27.36 20.1969 27.2533 20.0369 27.04C19.8769 26.8267 19.7969 26.6 19.7969 26.36C19.7969 26.2 19.9035 25.84 20.1169 25.28C20.3302 24.6933 20.6235 23.9867 20.9969 23.16C21.3702 22.3067 21.7835 21.3733 22.2369 20.36C22.7169 19.32 23.2235 18.2667 23.7569 17.2ZM25.5569 15.88C27.7435 15.1067 29.7302 14.1867 31.5169 13.12C33.3302 12.0533 34.8769 10.96 36.1569 9.84C37.4635 8.72 38.4769 7.62667 39.1969 6.56C39.9169 5.49333 40.3035 4.57333 40.3569 3.8C40.4102 3 40.1569 2.45333 39.5969 2.16C39.0369 1.84 38.3035 1.81333 37.3969 2.08C36.4369 2.37333 35.4369 2.89333 34.3969 3.64C33.3569 4.38666 32.3169 5.34666 31.2769 6.52C30.2635 7.69333 29.2635 9.06667 28.2769 10.64C27.2902 12.2133 26.3835 13.96 25.5569 15.88ZM39.2041 14.72C40.8307 14.72 41.6441 15.4267 41.6441 16.84C41.6441 18.0933 41.0174 19.7333 39.7641 21.76C38.6174 23.6267 37.4841 25.0267 36.3641 25.96C36.7641 26.44 37.2841 26.68 37.9241 26.68C38.1374 26.68 38.2441 26.7333 38.2441 26.84C38.2441 27 38.1107 27.08 37.8441 27.08C37.1774 27.08 36.5774 26.7733 36.0441 26.16C35.0041 26.9333 33.8974 27.32 32.7241 27.32C31.4707 27.32 30.8441 26.76 30.8441 25.64C30.8441 24.52 31.2974 23.0933 32.2041 21.36C33.0041 19.9467 33.8707 18.6933 34.8041 17.6V17.52C34.7774 16.6667 35.3107 15.96 36.4041 15.4C37.3107 14.9467 38.2441 14.72 39.2041 14.72ZM39.8041 17.16C39.8041 16.1467 39.4574 15.64 38.7641 15.64C38.1241 15.64 37.6041 16.0267 37.2041 16.8C37.3907 17.04 37.4841 17.2667 37.4841 17.48C37.4841 17.5867 37.4574 17.6533 37.4041 17.68C36.6307 18.1333 36.0041 18.6 35.5241 19.08C35.3107 19.8 35.2041 20.64 35.2041 21.6C35.2041 23.1733 35.4707 24.4533 36.0041 25.44C36.8841 24.6133 37.7374 23.32 38.5641 21.56C39.3907 19.8 39.8041 18.3333 39.8041 17.16ZM35.6841 25.72C34.9107 24.4933 34.5107 22.8933 34.4841 20.92C33.5507 22.4133 33.0841 23.64 33.0841 24.6C33.0841 25.7467 33.4974 26.32 34.3241 26.32C34.7507 26.32 35.2041 26.12 35.6841 25.72ZM45.7994 17.28C46.3594 16.5867 46.9327 16.1067 47.5194 15.84C48.1327 15.5733 48.7594 15.44 49.3994 15.44C50.2527 15.44 50.6794 15.88 50.6794 16.76C50.6794 17.2933 50.506 17.9733 50.1594 18.8C49.866 19.5733 49.3327 20.5067 48.5594 21.6C48.586 21.5733 48.6127 21.56 48.6394 21.56C48.7727 21.3467 48.9727 21.1467 49.2394 20.96C49.5327 20.7733 49.8394 20.64 50.1594 20.56C50.266 20.5867 50.3194 20.6133 50.3194 20.64C50.266 20.64 50.1994 20.76 50.1194 21C50.0394 21.24 49.9594 21.5333 49.8794 21.88C49.7994 22.2267 49.7194 22.6 49.6394 23C49.586 23.3733 49.5594 23.6933 49.5594 23.96C49.5594 24.52 49.6794 25.04 49.9194 25.52C50.1594 25.9733 50.466 26.2 50.8394 26.2C51.426 26.2 52.186 25.8 53.1194 25C53.3594 24.7867 53.5594 24.6133 53.7194 24.48C53.906 24.32 54.066 24.1867 54.1994 24.08C54.3327 23.9733 54.4527 23.8667 54.5594 23.76C54.6127 23.76 54.6394 23.7867 54.6394 23.84C54.666 23.9467 54.5994 24.1333 54.4394 24.4C53.986 25.12 53.386 25.76 52.6394 26.32C51.8127 26.9333 51.0127 27.24 50.2394 27.24C49.8394 27.24 49.466 27.1467 49.1194 26.96C48.7994 26.7733 48.5327 26.5067 48.3194 26.16C48.106 25.7867 47.9727 25.3333 47.9194 24.8C47.866 24.2667 47.9327 23.6533 48.1194 22.96C47.8794 23.0133 47.666 23.0533 47.4794 23.08L46.6394 24.32C46.106 25.12 45.5594 25.7733 44.9994 26.28C44.4394 26.76 43.8127 27.04 43.1194 27.12C42.4527 27.2267 41.6394 27.0133 40.6794 26.48C40.466 26.2667 40.3594 26 40.3594 25.68C40.3594 25.36 40.426 25.0667 40.5594 24.8C40.7194 24.5067 40.9327 24.2933 41.1994 24.16C41.466 24 41.7594 24 42.0794 24.16C42.2927 24.88 42.546 25.3733 42.8394 25.64C43.1327 25.88 43.426 25.9867 43.7194 25.96C44.0394 25.9067 44.3594 25.7467 44.6794 25.48C44.9994 25.2133 45.2927 24.92 45.5594 24.6C45.8527 24.28 46.106 23.9733 46.3194 23.68C46.4794 23.4133 46.6127 23.2267 46.7194 23.12C46.0794 23.12 45.5327 23.0267 45.0794 22.84C44.306 22.4933 43.9194 21.96 43.9194 21.24C43.9194 20.6533 44.026 20.1467 44.2394 19.72C44.4794 19.2667 44.826 18.7733 45.2794 18.24L45.5594 18.32C45.3727 18.6133 45.2527 18.92 45.1994 19.24C45.146 19.56 45.1194 19.8667 45.1194 20.16C45.1194 20.6133 45.426 21.0267 46.0394 21.4C46.466 21.64 46.9994 21.7467 47.6394 21.72L47.6794 21.64C47.9727 21.1333 48.226 20.64 48.4394 20.16C48.6794 19.6533 48.866 19.2 48.9994 18.8C49.1594 18.3733 49.2394 18.04 49.2394 17.8C49.2394 17.4267 49.1594 17.12 48.9994 16.88C48.8394 16.64 48.5994 16.52 48.2794 16.52C47.826 16.52 47.4394 16.5733 47.1194 16.68C46.826 16.7867 46.5194 17.08 46.1994 17.56C46.146 17.72 46.0394 17.7867 45.8794 17.76C45.7194 17.7067 45.6927 17.5467 45.7994 17.28ZM63.3828 20.64V20.76C66.3428 17.9867 68.5295 16.2267 69.9428 15.48C70.1561 15.3733 70.3961 15.32 70.6628 15.32C71.1161 15.32 71.3428 15.44 71.3428 15.68C71.3428 16.0267 70.7428 16.5467 69.5428 17.24C67.1428 18.6533 65.1561 20.0533 63.5828 21.44C63.8495 22.32 64.2361 23.2133 64.7428 24.12C65.4628 25.3733 66.1161 26 66.7028 26C67.2361 26 67.7561 25.5467 68.2628 24.64C68.7961 23.7067 69.0761 23.24 69.1028 23.24C69.1828 23.24 69.2228 23.3333 69.2228 23.52C69.2228 23.6533 69.1961 23.7733 69.1428 23.88C68.7695 24.9467 68.4628 25.6667 68.2228 26.04C67.7161 26.7867 67.0628 27.16 66.2628 27.16C65.4095 27.16 64.5961 26.56 63.8228 25.36C63.1828 24.3733 62.7828 23.3733 62.6228 22.36C61.9295 23.16 61.2895 24.04 60.7028 25C60.7295 25.08 60.7428 25.16 60.7428 25.24C60.7428 25.7733 60.4761 26.3067 59.9428 26.84C59.4095 27.3467 58.8628 27.6 58.3028 27.6C58.1161 27.6 58.0361 27.5333 58.0628 27.4C58.2495 27.1333 58.5161 26.72 58.8628 26.16C59.4761 24.9067 60.4228 23.0533 61.7028 20.6C61.5428 19.9067 61.4628 19.4933 61.4628 19.36C61.4628 18.9067 61.8761 18.56 62.7028 18.32C64.8361 13.4667 66.8895 9.50667 68.8628 6.44C68.7828 6.25333 68.7428 6.06667 68.7428 5.88C68.7428 5.77333 68.7695 5.66667 68.8228 5.56C69.4628 4.46667 69.9561 3.70667 70.3028 3.28C70.5961 2.96 71.1695 2.8 72.0228 2.8C72.7161 2.8 73.0628 2.93333 73.0628 3.2C73.0628 3.17333 72.4761 4.02667 71.3028 5.76C69.3561 8.69333 67.3961 12 65.4228 15.68C64.0361 18.2667 63.3561 19.92 63.3828 20.64ZM73.0972 27.24C71.7372 27.24 70.7372 27.0133 70.0972 26.56C67.8039 31.2533 66.6572 34.68 66.6572 36.84C66.6572 38.1467 66.9772 38.8 67.6172 38.8C68.1505 38.8 68.8172 38.44 69.6172 37.72C70.4439 37 70.8439 36.64 70.8172 36.64C70.8439 36.64 70.8572 36.6667 70.8572 36.72C70.8572 37.3067 70.2039 38.0933 68.8972 39.08C68.0439 39.6933 67.2839 40 66.6172 40C65.4439 40 64.8572 39.1333 64.8572 37.4C64.8572 35.24 66.3505 31.2933 69.3372 25.56C69.2839 25.3733 69.2572 25.1733 69.2572 24.96C69.2572 23.9467 69.7905 23.2133 70.8572 22.76C72.0839 20.6 73.5239 18.3333 75.1772 15.96C74.4839 14.8933 73.8572 14.1867 73.2972 13.84C73.2172 13.7867 73.1772 13.72 73.1772 13.64C73.1772 13.4533 73.3505 13.2133 73.6972 12.92C74.0439 12.6267 74.3239 12.48 74.5372 12.48C74.8039 12.48 75.3772 13.12 76.2572 14.4C77.2172 13.04 77.8572 12.36 78.1772 12.36C78.2839 12.36 78.3372 12.4267 78.3372 12.56C78.3372 12.6133 77.8039 13.44 76.7372 15.04C78.3905 17.6 79.2172 19.7333 79.2172 21.44C79.2172 22.8533 78.5505 24.1733 77.2172 25.4C75.8839 26.6267 74.5105 27.24 73.0972 27.24ZM77.6572 22.64C77.6572 20.9333 76.9905 18.96 75.6572 16.72C74.5639 18.4267 73.4972 20.2267 72.4572 22.12C72.6439 22.0133 72.8039 21.96 72.9372 21.96C73.0705 21.96 73.1372 22.0133 73.1372 22.12C73.1372 22.36 72.7239 22.6933 71.8972 23.12C71.4972 23.8667 71.1105 24.6 70.7372 25.32C71.1905 26.0667 72.1239 26.44 73.5372 26.44C74.7372 26.44 75.7239 26.1067 76.4972 25.44C77.2705 24.7467 77.6572 23.8133 77.6572 22.64ZM88.4281 27.32C87.2281 27.32 86.6281 26.4533 86.6281 24.72C86.6281 23.6267 86.8015 22.3067 87.1481 20.76C86.4281 21.96 85.3481 23.2667 83.9081 24.68C82.1748 26.4133 80.8015 27.28 79.7881 27.28C79.2815 27.28 79.0281 26.9333 79.0281 26.24C79.0281 24.6133 79.7881 22.56 81.3081 20.08C82.9348 17.36 84.5081 16.0667 86.0281 16.2C86.8815 15.7733 87.5481 15.56 88.0281 15.56C88.1881 15.56 88.7348 15.6267 89.6681 15.76C90.0415 15.6 90.3481 15.52 90.5881 15.52C90.8815 15.52 91.0281 15.6533 91.0281 15.92C91.0281 16.16 90.8815 16.6133 90.5881 17.28C90.2948 17.9467 90.0681 18.3067 89.9081 18.36C89.5348 19.08 89.2015 20.0933 88.9081 21.4C88.6415 22.68 88.5081 23.7467 88.5081 24.6C88.5081 25.6133 88.8015 26.12 89.3881 26.12C89.9481 26.12 90.6281 25.76 91.4281 25.04C92.2281 24.32 92.6148 23.96 92.5881 23.96C92.6415 23.96 92.6681 23.9867 92.6681 24.04C92.6681 24.6267 92.0015 25.4133 90.6681 26.4C89.8415 27.0133 89.0948 27.32 88.4281 27.32ZM88.5081 16.68C88.2681 16.5733 88.0148 16.52 87.7481 16.52C86.7615 16.52 85.8548 16.9733 85.0281 17.88C84.3081 18.6533 83.5615 19.7733 82.7881 21.24C82.0148 22.68 81.4548 23.9733 81.1081 25.12C81.0281 25.3333 80.9881 25.5067 80.9881 25.64C80.9881 25.8267 81.0548 25.92 81.1881 25.92C81.3748 25.92 81.6815 25.76 82.1081 25.44C83.5215 24.4267 84.7748 23.1067 85.8681 21.48C86.4281 20.6 87.3081 19 88.5081 16.68ZM102.402 16.64C102.402 17.2 102.188 17.76 101.762 18.32C101.335 18.88 100.868 19.16 100.362 19.16C100.255 19.16 100.202 19.12 100.202 19.04C100.202 18.9867 100.228 18.92 100.282 18.84C100.495 18.3867 100.602 17.8533 100.602 17.24C100.602 16.4667 100.375 16.08 99.9216 16.08C99.4949 16.08 98.9882 16.2933 98.4016 16.72C97.6016 17.3067 96.6549 18.5733 95.5616 20.52C94.4416 22.5467 93.8816 24.0267 93.8816 24.96C93.8816 25.8933 94.3616 26.36 95.3216 26.36C96.1216 26.36 97.0016 26.04 97.9616 25.4C98.6282 24.9467 99.3482 24.3333 100.122 23.56C100.762 22.92 101.108 22.6 101.162 22.6C101.215 22.6 101.242 22.6533 101.242 22.76C101.242 23.3733 100.748 24.0667 99.7616 24.84C97.6282 26.4667 95.3882 27.28 93.0416 27.28C92.3749 27.28 91.9616 27.1467 91.8016 26.88C91.6682 26.6933 91.6016 26.3467 91.6016 25.84C91.6016 25.4133 91.6549 24.9867 91.7616 24.56C92.4549 22.1067 93.5216 20.04 94.9616 18.36C96.7216 16.3067 98.7216 15.28 100.962 15.28C101.922 15.28 102.402 15.7333 102.402 16.64ZM108.898 14.72C110.524 14.72 111.338 15.4267 111.338 16.84C111.338 18.0933 110.711 19.7333 109.458 21.76C108.311 23.6267 107.178 25.0267 106.058 25.96C106.458 26.44 106.978 26.68 107.618 26.68C107.831 26.68 107.938 26.7333 107.938 26.84C107.938 27 107.804 27.08 107.538 27.08C106.871 27.08 106.271 26.7733 105.738 26.16C104.698 26.9333 103.591 27.32 102.418 27.32C101.164 27.32 100.538 26.76 100.538 25.64C100.538 24.52 100.991 23.0933 101.898 21.36C102.698 19.9467 103.564 18.6933 104.498 17.6V17.52C104.471 16.6667 105.004 15.96 106.098 15.4C107.004 14.9467 107.938 14.72 108.898 14.72ZM109.498 17.16C109.498 16.1467 109.151 15.64 108.458 15.64C107.818 15.64 107.298 16.0267 106.898 16.8C107.084 17.04 107.178 17.2667 107.178 17.48C107.178 17.5867 107.151 17.6533 107.098 17.68C106.324 18.1333 105.698 18.6 105.218 19.08C105.004 19.8 104.898 20.64 104.898 21.6C104.898 23.1733 105.164 24.4533 105.698 25.44C106.578 24.6133 107.431 23.32 108.258 21.56C109.084 19.8 109.498 18.3333 109.498 17.16ZM105.378 25.72C104.604 24.4933 104.204 22.8933 104.178 20.92C103.244 22.4133 102.778 23.64 102.778 24.6C102.778 25.7467 103.191 26.32 104.018 26.32C104.444 26.32 104.898 26.12 105.378 25.72ZM130.373 23.52C130.426 23.52 130.453 23.5467 130.453 23.6C130.453 23.7333 130.373 23.92 130.213 24.16C129.759 24.88 129.146 25.52 128.373 26.08C127.519 26.6933 126.706 27 125.933 27C124.359 27 123.573 26.0533 123.573 24.16C123.573 23.0133 123.959 21.3867 124.733 19.28C123.719 20.56 122.226 22.12 120.253 23.96C120.039 24.6533 119.693 25.2667 119.213 25.8C118.626 26.44 118.013 26.76 117.373 26.76C117.159 26.76 117.053 26.6933 117.053 26.56C117.053 26.5333 117.066 26.5067 117.093 26.48C117.653 25.0933 118.226 23.72 118.813 22.36C119.586 20.4133 119.973 19.0533 119.973 18.28C119.973 17.9867 119.893 17.84 119.733 17.84C119.253 17.84 118.159 18.8267 116.453 20.8C115.199 22.2933 114.213 23.56 113.493 24.6C113.066 25.2133 112.679 25.8533 112.333 26.52C112.253 26.7333 111.946 26.96 111.413 27.2C110.879 27.4667 110.493 27.6 110.253 27.6C110.066 27.6 109.986 27.5333 110.013 27.4C110.786 26.0933 111.933 23.5333 113.453 19.72L113.893 18.56C113.893 18.5067 113.813 18.48 113.653 18.48C113.519 18.48 113.453 18.44 113.453 18.36L114.933 15.92C115.013 15.76 115.239 15.6 115.613 15.44C115.986 15.28 116.279 15.2 116.493 15.2C116.759 15.2 116.893 15.32 116.893 15.56C116.893 15.64 116.466 16.68 115.613 18.68C114.706 20.8133 114.199 22.08 114.093 22.48C114.973 21.4133 116.186 20.16 117.733 18.72C119.706 16.8533 120.999 15.92 121.613 15.92C121.986 15.92 122.173 16.2133 122.173 16.8C122.173 18.08 121.546 20.12 120.293 22.92C122.666 20.84 124.333 19.0933 125.293 17.68C125.479 17.4133 125.733 17.28 126.053 17.28C126.613 17.28 126.893 17.5467 126.893 18.08C126.893 18.3733 126.786 18.7867 126.573 19.32C126.386 19.8533 126.186 20.1733 125.973 20.28C125.626 21.5867 125.453 22.7733 125.453 23.84C125.453 25.2533 125.826 25.96 126.573 25.96C127.159 25.96 127.933 25.56 128.893 24.76C129.879 23.9333 130.373 23.52 130.373 23.52ZM137.84 27.32C136.64 27.32 136.04 26.4533 136.04 24.72C136.04 23.6267 136.213 22.3067 136.56 20.76C135.84 21.96 134.76 23.2667 133.32 24.68C131.587 26.4133 130.213 27.28 129.2 27.28C128.693 27.28 128.44 26.9333 128.44 26.24C128.44 24.6133 129.2 22.56 130.72 20.08C132.347 17.36 133.92 16.0667 135.44 16.2C136.293 15.7733 136.96 15.56 137.44 15.56C137.6 15.56 138.147 15.6267 139.08 15.76C139.453 15.6 139.76 15.52 140 15.52C140.293 15.52 140.44 15.6533 140.44 15.92C140.44 16.16 140.293 16.6133 140 17.28C139.707 17.9467 139.48 18.3067 139.32 18.36C138.947 19.08 138.613 20.0933 138.32 21.4C138.053 22.68 137.92 23.7467 137.92 24.6C137.92 25.6133 138.213 26.12 138.8 26.12C139.36 26.12 140.04 25.76 140.84 25.04C141.64 24.32 142.027 23.96 142 23.96C142.053 23.96 142.08 23.9867 142.08 24.04C142.08 24.6267 141.413 25.4133 140.08 26.4C139.253 27.0133 138.507 27.32 137.84 27.32ZM137.92 16.68C137.68 16.5733 137.427 16.52 137.16 16.52C136.173 16.52 135.267 16.9733 134.44 17.88C133.72 18.6533 132.973 19.7733 132.2 21.24C131.427 22.68 130.867 23.9733 130.52 25.12C130.44 25.3333 130.4 25.5067 130.4 25.64C130.4 25.8267 130.467 25.92 130.6 25.92C130.787 25.92 131.093 25.76 131.52 25.44C132.933 24.4267 134.187 23.1067 135.28 21.48C135.84 20.6 136.72 19 137.92 16.68ZM156.899 18.68C157.192 17.96 157.552 17.48 157.979 17.24C158.432 17 158.965 16.88 159.579 16.88C159.952 16.88 160.112 16.9733 160.059 17.16C160.059 17.24 159.965 17.3867 159.779 17.6C159.619 17.7867 159.432 17.9867 159.219 18.2L158.379 19.04C158.219 19.2533 158.032 19.6 157.819 20.08C157.605 20.5333 157.392 21.04 157.179 21.6C156.992 22.1333 156.819 22.6667 156.659 23.2C156.499 23.7333 156.392 24.1733 156.339 24.52C156.125 25.56 156.285 26.08 156.819 26.08C157.005 26.08 157.272 25.9867 157.619 25.8C157.992 25.6133 158.352 25.4 158.699 25.16C159.072 24.92 159.379 24.7067 159.619 24.52C159.805 24.3867 159.899 24.3067 159.899 24.28C159.872 24.4133 159.725 24.64 159.459 24.96C159.192 25.2533 158.859 25.56 158.459 25.88C158.059 26.2 157.619 26.4933 157.139 26.76C156.659 27 156.205 27.12 155.779 27.12C154.765 27.12 154.405 26.3733 154.699 24.88C154.725 24.64 154.819 24.2667 154.979 23.76C155.165 23.2267 155.352 22.6933 155.539 22.16C155.672 21.8133 155.792 21.48 155.899 21.16C155.792 21.16 155.672 21.1733 155.539 21.2C154.899 21.28 154.179 21.44 153.379 21.68C152.659 21.8933 151.939 22.1467 151.219 22.44L151.179 22.52C150.832 23.3467 150.499 24.12 150.179 24.84C149.859 25.56 149.605 26.12 149.419 26.52C149.365 26.6267 149.232 26.7467 149.019 26.88C148.832 26.9867 148.632 27.0933 148.419 27.2C148.205 27.3067 147.992 27.4 147.779 27.48C147.565 27.56 147.419 27.6 147.339 27.6C147.179 27.6 147.099 27.56 147.099 27.48V27.4C147.765 26.28 148.419 25.0133 149.059 23.6C149.085 23.5467 149.099 23.4933 149.099 23.44C149.765 21.9733 150.485 20.3467 151.259 18.56C151.259 18.5067 151.192 18.48 151.059 18.48C150.925 18.48 150.859 18.44 150.859 18.36C150.859 18.3333 151.339 17.52 152.299 15.92C152.405 15.76 152.645 15.6 153.019 15.44C153.392 15.28 153.685 15.2 153.899 15.2C154.165 15.2 154.299 15.32 154.299 15.56C154.299 15.5067 154.205 15.6933 154.019 16.12C153.832 16.52 153.592 17.0533 153.299 17.72C153.005 18.3867 152.672 19.1467 152.299 20C152.059 20.5067 151.832 21.0133 151.619 21.52C151.832 21.4667 152.059 21.4 152.299 21.32C153.045 21.08 153.752 20.8933 154.419 20.76C155.059 20.6533 155.632 20.5733 156.139 20.52C156.299 20.1467 156.392 19.9067 156.419 19.8L156.899 18.68ZM169.02 27.32C167.82 27.32 167.22 26.4533 167.22 24.72C167.22 23.6267 167.393 22.3067 167.74 20.76C167.02 21.96 165.94 23.2667 164.5 24.68C162.767 26.4133 161.393 27.28 160.38 27.28C159.873 27.28 159.62 26.9333 159.62 26.24C159.62 24.6133 160.38 22.56 161.9 20.08C163.527 17.36 165.1 16.0667 166.62 16.2C167.473 15.7733 168.14 15.56 168.62 15.56C168.78 15.56 169.327 15.6267 170.26 15.76C170.633 15.6 170.94 15.52 171.18 15.52C171.473 15.52 171.62 15.6533 171.62 15.92C171.62 16.16 171.473 16.6133 171.18 17.28C170.887 17.9467 170.66 18.3067 170.5 18.36C170.127 19.08 169.793 20.0933 169.5 21.4C169.233 22.68 169.1 23.7467 169.1 24.6C169.1 25.6133 169.393 26.12 169.98 26.12C170.54 26.12 171.22 25.76 172.02 25.04C172.82 24.32 173.207 23.96 173.18 23.96C173.233 23.96 173.26 23.9867 173.26 24.04C173.26 24.6267 172.593 25.4133 171.26 26.4C170.433 27.0133 169.687 27.32 169.02 27.32ZM169.1 16.68C168.86 16.5733 168.607 16.52 168.34 16.52C167.353 16.52 166.447 16.9733 165.62 17.88C164.9 18.6533 164.153 19.7733 163.38 21.24C162.607 22.68 162.047 23.9733 161.7 25.12C161.62 25.3333 161.58 25.5067 161.58 25.64C161.58 25.8267 161.647 25.92 161.78 25.92C161.967 25.92 162.273 25.76 162.7 25.44C164.113 24.4267 165.367 23.1067 166.46 21.48C167.02 20.6 167.9 19 169.1 16.68ZM180.073 18.48C179.673 18.6133 179.313 18.68 178.993 18.68C178.673 18.6533 178.38 18.6 178.113 18.52C177.847 18.44 177.593 18.36 177.353 18.28C177.14 18.1733 176.953 18.12 176.793 18.12C176.633 18.12 176.5 18.2 176.393 18.36C176.26 18.4933 176.047 18.7867 175.753 19.24C175.46 19.6933 175.153 20.16 174.833 20.64C174.513 21.12 174.207 21.56 173.913 21.96C173.647 22.3333 173.46 22.52 173.353 22.52C173.3 22.52 173.273 22.48 173.273 22.4C173.273 22.2133 173.367 21.9733 173.553 21.68C173.82 21.1733 174.087 20.6533 174.353 20.12C174.62 19.56 174.847 19.04 175.033 18.56C175.247 18.0533 175.42 17.5867 175.553 17.16C175.687 16.7333 175.753 16.3733 175.753 16.08V15.8C175.753 15.5067 175.9 15.2933 176.193 15.16C176.487 15 176.74 14.92 176.953 14.92C177.113 14.92 177.193 14.9733 177.193 15.08C177.193 15.16 177.167 15.2933 177.113 15.48C177.087 15.6667 177.073 15.8533 177.073 16.04C177.073 16.2267 177.18 16.4267 177.393 16.64C177.607 16.8533 177.873 17.0533 178.193 17.24C178.513 17.4 178.86 17.5067 179.233 17.56C179.633 17.6133 180.007 17.5733 180.353 17.44C180.38 17.44 180.447 17.32 180.553 17.08C180.66 16.8133 180.78 16.6667 180.913 16.64C181.42 16.2933 181.793 16.12 182.033 16.12L182.073 16.16C182.1 16.1333 182.167 16.12 182.273 16.12C182.38 16.12 182.473 16.1733 182.553 16.28C182.66 16.3867 182.687 16.5467 182.633 16.76C182.58 16.92 182.487 17.12 182.353 17.36C182.247 17.5733 182.1 17.8 181.913 18.04C181.753 18.2533 181.58 18.4533 181.393 18.64C181.233 18.8267 181.087 18.96 180.953 19.04C180.5 19.92 180.047 20.8133 179.593 21.72C179.14 22.6 178.807 23.4533 178.593 24.28C178.353 25.4 178.5 25.96 179.033 25.96C179.273 25.96 179.647 25.84 180.153 25.6C180.687 25.3333 181.207 25.0533 181.713 24.76C182.22 24.44 182.66 24.16 183.033 23.92C183.407 23.6533 183.567 23.52 183.513 23.52C183.513 23.52 183.513 23.56 183.513 23.64C183.407 24.0133 183.127 24.4 182.673 24.8C182.22 25.2 181.713 25.56 181.153 25.88C180.593 26.2 180.033 26.4667 179.473 26.68C178.913 26.8933 178.473 27 178.153 27C177.833 27 177.567 26.92 177.353 26.76C177.14 26.5733 176.98 26.36 176.873 26.12C176.767 25.8533 176.7 25.5733 176.673 25.28C176.673 24.96 176.713 24.6533 176.793 24.36C177.007 23.5867 177.407 22.6667 177.993 21.6C178.607 20.5333 179.3 19.4933 180.073 18.48ZM194.186 27.32C193.012 27.32 192.426 26.4533 192.426 24.72C192.426 24.1333 192.506 23.36 192.666 22.4C192.852 21.2533 192.959 20.48 192.986 20.08C189.466 24.5867 187.052 26.84 185.746 26.84C184.759 26.84 184.266 26.32 184.266 25.28C184.266 24.4 184.559 23.32 185.146 22.04C185.226 21.88 185.759 20.88 186.746 19.04H186.666C186.506 19.04 186.426 18.9733 186.426 18.84C186.426 18.7867 186.439 18.72 186.466 18.64C187.239 17.2533 187.679 16.5067 187.786 16.4C188.292 15.84 189.092 15.56 190.186 15.56C190.319 15.56 190.386 15.64 190.386 15.8C190.386 16.0133 189.679 17.24 188.266 19.48C187.866 20.12 187.439 20.9867 186.986 22.08C186.479 23.3333 186.226 24.2267 186.226 24.76C186.226 25.1333 186.346 25.32 186.586 25.32C186.959 25.32 187.532 24.9867 188.306 24.32C190.119 22.8 191.879 20.68 193.586 17.96L193.706 17.52C193.919 16.72 194.252 16.1733 194.706 15.88C195.159 15.5867 195.746 15.44 196.466 15.44C196.892 15.44 197.106 15.5467 197.106 15.76C197.106 15.9467 196.879 16.3067 196.426 16.84C195.892 17.4533 195.586 17.8267 195.506 17.96C195.186 18.5733 194.892 19.6 194.626 21.04C194.386 22.3733 194.266 23.4667 194.266 24.32C194.266 25.52 194.572 26.12 195.186 26.12C195.719 26.12 196.386 25.76 197.186 25.04C198.012 24.32 198.412 23.96 198.386 23.96C198.412 23.96 198.426 23.9867 198.426 24.04C198.426 24.6267 197.772 25.4133 196.466 26.4C195.612 27.0133 194.852 27.32 194.186 27.32ZM206.037 18.68C206.331 17.96 206.691 17.48 207.117 17.24C207.571 17 208.104 16.88 208.717 16.88C209.091 16.88 209.251 16.9733 209.197 17.16C209.197 17.24 209.104 17.3867 208.917 17.6C208.757 17.7867 208.571 17.9867 208.357 18.2L207.517 19.04C207.357 19.2533 207.171 19.6 206.957 20.08C206.744 20.5333 206.531 21.04 206.317 21.6C206.131 22.1333 205.957 22.6667 205.797 23.2C205.637 23.7333 205.531 24.1733 205.477 24.52C205.264 25.56 205.424 26.08 205.957 26.08C206.144 26.08 206.411 25.9867 206.757 25.8C207.131 25.6133 207.491 25.4 207.837 25.16C208.211 24.92 208.517 24.7067 208.757 24.52C208.944 24.3867 209.037 24.3067 209.037 24.28C209.011 24.4133 208.864 24.64 208.597 24.96C208.331 25.2533 207.997 25.56 207.597 25.88C207.197 26.2 206.757 26.4933 206.277 26.76C205.797 27 205.344 27.12 204.917 27.12C203.904 27.12 203.544 26.3733 203.837 24.88C203.864 24.64 203.957 24.2667 204.117 23.76C204.304 23.2267 204.491 22.6933 204.677 22.16C204.811 21.8133 204.931 21.48 205.037 21.16C204.931 21.16 204.811 21.1733 204.677 21.2C204.037 21.28 203.317 21.44 202.517 21.68C201.797 21.8933 201.077 22.1467 200.357 22.44L200.317 22.52C199.971 23.3467 199.637 24.12 199.317 24.84C198.997 25.56 198.744 26.12 198.557 26.52C198.504 26.6267 198.371 26.7467 198.157 26.88C197.971 26.9867 197.771 27.0933 197.557 27.2C197.344 27.3067 197.131 27.4 196.917 27.48C196.704 27.56 196.557 27.6 196.477 27.6C196.317 27.6 196.237 27.56 196.237 27.48V27.4C196.904 26.28 197.557 25.0133 198.197 23.6C198.224 23.5467 198.237 23.4933 198.237 23.44C198.904 21.9733 199.624 20.3467 200.397 18.56C200.397 18.5067 200.331 18.48 200.197 18.48C200.064 18.48 199.997 18.44 199.997 18.36C199.997 18.3333 200.477 17.52 201.437 15.92C201.544 15.76 201.784 15.6 202.157 15.44C202.531 15.28 202.824 15.2 203.037 15.2C203.304 15.2 203.437 15.32 203.437 15.56C203.437 15.5067 203.344 15.6933 203.157 16.12C202.971 16.52 202.731 17.0533 202.437 17.72C202.144 18.3867 201.811 19.1467 201.437 20C201.197 20.5067 200.971 21.0133 200.757 21.52C200.971 21.4667 201.197 21.4 201.437 21.32C202.184 21.08 202.891 20.8933 203.557 20.76C204.197 20.6533 204.771 20.5733 205.277 20.52C205.437 20.1467 205.531 19.9067 205.557 19.8L206.037 18.68ZM218.158 27.32C216.958 27.32 216.358 26.4533 216.358 24.72C216.358 23.6267 216.532 22.3067 216.878 20.76C216.158 21.96 215.078 23.2667 213.638 24.68C211.905 26.4133 210.532 27.28 209.518 27.28C209.012 27.28 208.758 26.9333 208.758 26.24C208.758 24.6133 209.518 22.56 211.038 20.08C212.665 17.36 214.238 16.0667 215.758 16.2C216.612 15.7733 217.278 15.56 217.758 15.56C217.918 15.56 218.465 15.6267 219.398 15.76C219.772 15.6 220.078 15.52 220.318 15.52C220.612 15.52 220.758 15.6533 220.758 15.92C220.758 16.16 220.612 16.6133 220.318 17.28C220.025 17.9467 219.798 18.3067 219.638 18.36C219.265 19.08 218.932 20.0933 218.638 21.4C218.372 22.68 218.238 23.7467 218.238 24.6C218.238 25.6133 218.532 26.12 219.118 26.12C219.678 26.12 220.358 25.76 221.158 25.04C221.958 24.32 222.345 23.96 222.318 23.96C222.372 23.96 222.398 23.9867 222.398 24.04C222.398 24.6267 221.732 25.4133 220.398 26.4C219.572 27.0133 218.825 27.32 218.158 27.32ZM218.238 16.68C217.998 16.5733 217.745 16.52 217.478 16.52C216.492 16.52 215.585 16.9733 214.758 17.88C214.038 18.6533 213.292 19.7733 212.518 21.24C211.745 22.68 211.185 23.9733 210.838 25.12C210.758 25.3333 210.718 25.5067 210.718 25.64C210.718 25.8267 210.785 25.92 210.918 25.92C211.105 25.92 211.412 25.76 211.838 25.44C213.252 24.4267 214.505 23.1067 215.598 21.48C216.158 20.6 217.038 19 218.238 16.68ZM231.412 20.52C231.412 20.6267 231.225 20.68 230.852 20.68C230.692 20.68 230.452 20.6667 230.132 20.64C229.812 20.5867 229.572 20.56 229.412 20.56C228.212 20.56 226.705 20.7467 224.892 21.12C223.959 22.8267 223.492 24.1067 223.492 24.96C223.492 25.8933 223.972 26.36 224.932 26.36C225.732 26.36 226.625 26.04 227.612 25.4C228.279 24.9467 228.985 24.3333 229.732 23.56C230.372 22.92 230.705 22.6 230.732 22.6C230.812 22.6 230.852 22.6533 230.852 22.76C230.852 23.3733 230.359 24.0667 229.372 24.84C227.239 26.4667 224.999 27.28 222.652 27.28C222.012 27.28 221.599 27.1467 221.412 26.88C221.279 26.6933 221.212 26.3467 221.212 25.84C221.212 24.8533 221.652 23.4267 222.532 21.56C222.505 21.5067 222.492 21.4667 222.492 21.44C222.492 21.4133 222.612 21.2267 222.852 20.88C223.012 20.5867 223.239 20.1733 223.532 19.64C224.705 17.72 225.999 16.5733 227.412 16.2C227.759 16.12 228.039 16.08 228.252 16.08C228.439 16.08 228.532 16.12 228.532 16.2C228.532 16.3067 228.359 16.48 228.012 16.72C227.319 17.2267 226.465 18.3467 225.452 20.08C226.839 19.84 228.039 19.76 229.052 19.84C229.852 18.6933 230.252 17.5867 230.252 16.52C230.252 16.2267 230.212 16.0533 230.132 16C230.079 15.9467 229.919 15.92 229.652 15.92C229.412 15.92 229.292 15.8533 229.292 15.72C229.292 15.5867 229.505 15.4667 229.932 15.36C230.359 15.2533 230.692 15.2 230.932 15.2C231.652 15.2 232.012 15.5333 232.012 16.2C232.012 16.76 231.772 17.4533 231.292 18.28C230.812 19.1067 230.332 19.6533 229.852 19.92C230.892 20.1067 231.412 20.3067 231.412 20.52ZM251.246 23.52C251.3 23.52 251.326 23.5467 251.326 23.6C251.326 23.7333 251.246 23.92 251.086 24.16C250.633 24.88 250.02 25.52 249.246 26.08C248.393 26.6933 247.58 27 246.806 27C245.233 27 244.446 26.0533 244.446 24.16C244.446 23.0133 244.833 21.3867 245.606 19.28C244.593 20.56 243.1 22.12 241.126 23.96C240.913 24.6533 240.566 25.2667 240.086 25.8C239.5 26.44 238.886 26.76 238.246 26.76C238.033 26.76 237.926 26.6933 237.926 26.56C237.926 26.5333 237.94 26.5067 237.966 26.48C238.526 25.0933 239.1 23.72 239.686 22.36C240.46 20.4133 240.846 19.0533 240.846 18.28C240.846 17.9867 240.766 17.84 240.606 17.84C240.126 17.84 239.033 18.8267 237.326 20.8C236.073 22.2933 235.086 23.56 234.366 24.6C233.94 25.2133 233.553 25.8533 233.206 26.52C233.126 26.7333 232.82 26.96 232.286 27.2C231.753 27.4667 231.366 27.6 231.126 27.6C230.94 27.6 230.86 27.5333 230.886 27.4C231.66 26.0933 232.806 23.5333 234.326 19.72L234.766 18.56C234.766 18.5067 234.686 18.48 234.526 18.48C234.393 18.48 234.326 18.44 234.326 18.36L235.806 15.92C235.886 15.76 236.113 15.6 236.486 15.44C236.86 15.28 237.153 15.2 237.366 15.2C237.633 15.2 237.766 15.32 237.766 15.56C237.766 15.64 237.34 16.68 236.486 18.68C235.58 20.8133 235.073 22.08 234.966 22.48C235.846 21.4133 237.06 20.16 238.606 18.72C240.58 16.8533 241.873 15.92 242.486 15.92C242.86 15.92 243.046 16.2133 243.046 16.8C243.046 18.08 242.42 20.12 241.166 22.92C243.54 20.84 245.206 19.0933 246.166 17.68C246.353 17.4133 246.606 17.28 246.926 17.28C247.486 17.28 247.766 17.5467 247.766 18.08C247.766 18.3733 247.66 18.7867 247.446 19.32C247.26 19.8533 247.06 20.1733 246.846 20.28C246.5 21.5867 246.326 22.7733 246.326 23.84C246.326 25.2533 246.7 25.96 247.446 25.96C248.033 25.96 248.806 25.56 249.766 24.76C250.753 23.9333 251.246 23.52 251.246 23.52ZM260.353 16.64C260.353 17.2 260.14 17.76 259.713 18.32C259.287 18.88 258.82 19.16 258.313 19.16C258.207 19.16 258.153 19.12 258.153 19.04C258.153 18.9867 258.18 18.92 258.233 18.84C258.447 18.3867 258.553 17.8533 258.553 17.24C258.553 16.4667 258.327 16.08 257.873 16.08C257.447 16.08 256.94 16.2933 256.353 16.72C255.553 17.3067 254.607 18.5733 253.513 20.52C252.393 22.5467 251.833 24.0267 251.833 24.96C251.833 25.8933 252.313 26.36 253.273 26.36C254.073 26.36 254.953 26.04 255.913 25.4C256.58 24.9467 257.3 24.3333 258.073 23.56C258.713 22.92 259.06 22.6 259.113 22.6C259.167 22.6 259.193 22.6533 259.193 22.76C259.193 23.3733 258.7 24.0667 257.713 24.84C255.58 26.4667 253.34 27.28 250.993 27.28C250.327 27.28 249.913 27.1467 249.753 26.88C249.62 26.6933 249.553 26.3467 249.553 25.84C249.553 25.4133 249.607 24.9867 249.713 24.56C250.407 22.1067 251.473 20.04 252.913 18.36C254.673 16.3067 256.673 15.28 258.913 15.28C259.873 15.28 260.353 15.7333 260.353 16.64ZM263.689 17.28C264.249 16.5867 264.823 16.1067 265.409 15.84C266.023 15.5733 266.649 15.44 267.289 15.44C268.143 15.44 268.569 15.88 268.569 16.76C268.569 17.2933 268.396 17.9733 268.049 18.8C267.756 19.5733 267.223 20.5067 266.449 21.6C266.476 21.5733 266.503 21.56 266.529 21.56C266.663 21.3467 266.863 21.1467 267.129 20.96C267.423 20.7733 267.729 20.64 268.049 20.56C268.156 20.5867 268.209 20.6133 268.209 20.64C268.156 20.64 268.089 20.76 268.009 21C267.929 21.24 267.849 21.5333 267.769 21.88C267.689 22.2267 267.609 22.6 267.529 23C267.476 23.3733 267.449 23.6933 267.449 23.96C267.449 24.52 267.569 25.04 267.809 25.52C268.049 25.9733 268.356 26.2 268.729 26.2C269.316 26.2 270.076 25.8 271.009 25C271.249 24.7867 271.449 24.6133 271.609 24.48C271.796 24.32 271.956 24.1867 272.089 24.08C272.223 23.9733 272.343 23.8667 272.449 23.76C272.503 23.76 272.529 23.7867 272.529 23.84C272.556 23.9467 272.489 24.1333 272.329 24.4C271.876 25.12 271.276 25.76 270.529 26.32C269.703 26.9333 268.903 27.24 268.129 27.24C267.729 27.24 267.356 27.1467 267.009 26.96C266.689 26.7733 266.423 26.5067 266.209 26.16C265.996 25.7867 265.863 25.3333 265.809 24.8C265.756 24.2667 265.823 23.6533 266.009 22.96C265.769 23.0133 265.556 23.0533 265.369 23.08L264.529 24.32C263.996 25.12 263.449 25.7733 262.889 26.28C262.329 26.76 261.703 27.04 261.009 27.12C260.343 27.2267 259.529 27.0133 258.569 26.48C258.356 26.2667 258.249 26 258.249 25.68C258.249 25.36 258.316 25.0667 258.449 24.8C258.609 24.5067 258.823 24.2933 259.089 24.16C259.356 24 259.649 24 259.969 24.16C260.183 24.88 260.436 25.3733 260.729 25.64C261.023 25.88 261.316 25.9867 261.609 25.96C261.929 25.9067 262.249 25.7467 262.569 25.48C262.889 25.2133 263.183 24.92 263.449 24.6C263.743 24.28 263.996 23.9733 264.209 23.68C264.369 23.4133 264.503 23.2267 264.609 23.12C263.969 23.12 263.423 23.0267 262.969 22.84C262.196 22.4933 261.809 21.96 261.809 21.24C261.809 20.6533 261.916 20.1467 262.129 19.72C262.369 19.2667 262.716 18.7733 263.169 18.24L263.449 18.32C263.263 18.6133 263.143 18.92 263.089 19.24C263.036 19.56 263.009 19.8667 263.009 20.16C263.009 20.6133 263.316 21.0267 263.929 21.4C264.356 21.64 264.889 21.7467 265.529 21.72L265.569 21.64C265.863 21.1333 266.116 20.64 266.329 20.16C266.569 19.6533 266.756 19.2 266.889 18.8C267.049 18.3733 267.129 18.04 267.129 17.8C267.129 17.4267 267.049 17.12 266.889 16.88C266.729 16.64 266.489 16.52 266.169 16.52C265.716 16.52 265.329 16.5733 265.009 16.68C264.716 16.7867 264.409 17.08 264.089 17.56C264.036 17.72 263.929 17.7867 263.769 17.76C263.609 17.7067 263.583 17.5467 263.689 17.28ZM283.353 19.6C283.619 19.3867 283.873 19.16 284.113 18.92C284.379 18.68 284.566 18.4533 284.673 18.24C284.993 17.5733 284.939 17.0133 284.513 16.56C284.113 16.1067 283.513 15.88 282.713 15.88C282.259 15.88 281.859 15.9867 281.513 16.2C281.193 16.3867 280.966 16.6267 280.833 16.92C280.753 17.08 280.686 17.2933 280.633 17.56C280.606 17.8 280.566 17.9867 280.513 18.12C280.486 18.1467 280.459 18.16 280.433 18.16C280.193 18.16 279.993 18.0933 279.833 17.96C279.699 17.8 279.593 17.6133 279.513 17.4C279.433 17.16 279.393 16.92 279.393 16.68C279.393 16.44 279.446 16.2133 279.553 16C279.899 15.28 280.513 14.92 281.393 14.92C282.113 14.92 282.793 15.0667 283.433 15.36C284.073 15.6267 284.619 15.9733 285.073 16.4C285.526 16.8267 285.833 17.3067 285.993 17.84C286.179 18.3467 286.153 18.8533 285.913 19.36C285.779 19.6533 285.446 19.9467 284.913 20.24C284.406 20.5333 283.899 20.84 283.393 21.16C283.606 21.3733 283.833 21.6 284.073 21.84C284.313 22.08 284.539 22.3333 284.753 22.6C284.966 22.8667 285.139 23.12 285.273 23.36C285.406 23.5733 285.473 23.76 285.473 23.92C285.419 24.3733 285.219 24.8533 284.873 25.36C285.326 25.3333 285.659 25.32 285.873 25.32C286.113 25.2933 286.246 25.28 286.273 25.28C286.433 25.28 286.513 25.32 286.513 25.4C286.486 25.6133 286.286 25.7467 285.913 25.8C285.539 25.8533 285.033 25.9333 284.393 26.04C282.926 27.2933 280.979 27.92 278.553 27.92C277.726 27.92 277.313 27.7733 277.313 27.48C277.313 27.2667 277.486 27.0533 277.833 26.84C278.206 26.6267 278.686 26.4267 279.273 26.24C279.859 26.0267 280.553 25.8533 281.353 25.72C282.153 25.56 282.993 25.44 283.873 25.36C283.926 25.2533 283.953 25.1467 283.953 25.04C283.953 24.8533 283.859 24.5733 283.673 24.2C283.513 23.8 283.246 23.4267 282.873 23.08C282.499 22.7067 282.019 22.4133 281.433 22.2C280.846 21.9867 280.139 21.9467 279.313 22.08C279.286 21.92 279.273 21.7867 279.273 21.68C279.273 21.4133 279.379 21.2533 279.593 21.2C280.153 21.0667 280.659 20.92 281.113 20.76C281.566 20.6 281.966 20.4267 282.313 20.24C282.686 20.0533 283.033 19.84 283.353 19.6ZM299.41 15.36L298.93 16.2C298.584 16.7867 297.97 18.1467 297.09 20.28C296.397 22.0933 295.33 24.8 293.89 28.4C294.157 28.3733 294.517 28.36 294.97 28.36C295.61 28.36 295.93 28.4933 295.93 28.76C295.93 28.8667 295.224 28.92 293.81 28.92H293.69C292.41 31.9867 290.797 34.5333 288.85 36.56C286.397 39.0933 283.744 40.36 280.89 40.36C279.637 40.36 278.53 40.0667 277.57 39.48C276.45 38.8133 275.89 37.88 275.89 36.68C275.89 34.3333 278.05 32.2667 282.37 30.48C285.037 29.36 288.357 28.68 292.33 28.44C292.864 27.1067 293.424 25.6133 294.01 23.96C294.277 23.2667 294.637 22.2 295.09 20.76C294.37 21.96 293.29 23.2667 291.85 24.68C290.117 26.4133 288.744 27.28 287.73 27.28C287.224 27.28 286.97 26.9333 286.97 26.24C286.97 24.6133 287.73 22.56 289.25 20.08C290.877 17.36 292.437 16.0667 293.93 16.2C294.81 15.7733 295.477 15.56 295.93 15.56C296.17 15.56 296.61 15.6 297.25 15.68L297.29 15.56C297.717 15.16 298.25 14.96 298.89 14.96C299.264 14.96 299.45 15.0667 299.45 15.28L299.41 15.36ZM296.45 16.68C296.21 16.5733 295.944 16.52 295.65 16.52C294.69 16.52 293.797 16.9733 292.97 17.88C292.25 18.6533 291.504 19.7733 290.73 21.24C289.957 22.68 289.397 23.9733 289.05 25.12C288.97 25.3333 288.93 25.5067 288.93 25.64C288.93 25.8267 288.997 25.92 289.13 25.92C289.317 25.92 289.624 25.76 290.05 25.44C291.464 24.4267 292.704 23.1067 293.77 21.48C294.357 20.6 295.25 19 296.45 16.68ZM292.09 28.96C288.357 29.1733 285.224 29.9333 282.69 31.24C279.224 33 277.49 34.88 277.49 36.88C277.49 37.7333 277.837 38.4 278.53 38.88C279.117 39.3067 279.85 39.52 280.73 39.52C283.05 39.52 285.344 38.2667 287.61 35.76C289.344 33.8933 290.837 31.6267 292.09 28.96ZM307.043 20.52C307.043 20.6267 306.856 20.68 306.483 20.68C306.323 20.68 306.083 20.6667 305.763 20.64C305.443 20.5867 305.203 20.56 305.043 20.56C303.843 20.56 302.336 20.7467 300.523 21.12C299.589 22.8267 299.123 24.1067 299.123 24.96C299.123 25.8933 299.603 26.36 300.563 26.36C301.363 26.36 302.256 26.04 303.243 25.4C303.909 24.9467 304.616 24.3333 305.363 23.56C306.003 22.92 306.336 22.6 306.363 22.6C306.443 22.6 306.483 22.6533 306.483 22.76C306.483 23.3733 305.989 24.0667 305.003 24.84C302.869 26.4667 300.629 27.28 298.283 27.28C297.643 27.28 297.229 27.1467 297.043 26.88C296.909 26.6933 296.843 26.3467 296.843 25.84C296.843 24.8533 297.283 23.4267 298.163 21.56C298.136 21.5067 298.123 21.4667 298.123 21.44C298.123 21.4133 298.243 21.2267 298.483 20.88C298.643 20.5867 298.869 20.1733 299.163 19.64C300.336 17.72 301.629 16.5733 303.043 16.2C303.389 16.12 303.669 16.08 303.883 16.08C304.069 16.08 304.163 16.12 304.163 16.2C304.163 16.3067 303.989 16.48 303.643 16.72C302.949 17.2267 302.096 18.3467 301.083 20.08C302.469 19.84 303.669 19.76 304.683 19.84C305.483 18.6933 305.883 17.5867 305.883 16.52C305.883 16.2267 305.843 16.0533 305.763 16C305.709 15.9467 305.549 15.92 305.283 15.92C305.043 15.92 304.923 15.8533 304.923 15.72C304.923 15.5867 305.136 15.4667 305.563 15.36C305.989 15.2533 306.323 15.2 306.563 15.2C307.283 15.2 307.643 15.5333 307.643 16.2C307.643 16.76 307.403 17.4533 306.923 18.28C306.443 19.1067 305.963 19.6533 305.483 19.92C306.523 20.1067 307.043 20.3067 307.043 20.52ZM317.557 16.64C317.557 17.2 317.344 17.76 316.917 18.32C316.491 18.88 316.024 19.16 315.517 19.16C315.411 19.16 315.357 19.12 315.357 19.04C315.357 18.9867 315.384 18.92 315.437 18.84C315.651 18.3867 315.757 17.8533 315.757 17.24C315.757 16.4667 315.531 16.08 315.077 16.08C314.651 16.08 314.144 16.2933 313.557 16.72C312.757 17.3067 311.811 18.5733 310.717 20.52C309.597 22.5467 309.037 24.0267 309.037 24.96C309.037 25.8933 309.517 26.36 310.477 26.36C311.277 26.36 312.157 26.04 313.117 25.4C313.784 24.9467 314.504 24.3333 315.277 23.56C315.917 22.92 316.264 22.6 316.317 22.6C316.371 22.6 316.397 22.6533 316.397 22.76C316.397 23.3733 315.904 24.0667 314.917 24.84C312.784 26.4667 310.544 27.28 308.197 27.28C307.531 27.28 307.117 27.1467 306.957 26.88C306.824 26.6933 306.757 26.3467 306.757 25.84C306.757 25.4133 306.811 24.9867 306.917 24.56C307.611 22.1067 308.677 20.04 310.117 18.36C311.877 16.3067 313.877 15.28 316.117 15.28C317.077 15.28 317.557 15.7333 317.557 16.64ZM322.773 20.52C322.746 20.3333 322.666 20.2267 322.533 20.2C322.346 20.1733 322.053 20.2933 321.653 20.56C321.253 20.8267 320.826 21.1733 320.373 21.6C319.92 22 319.48 22.44 319.053 22.92C318.653 23.3733 318.36 23.7733 318.173 24.12C318.68 23.8267 319.306 23.5467 320.053 23.28C320.8 23.0133 321.6 22.7733 322.453 22.56C322.746 21.5467 322.853 20.8667 322.773 20.52ZM322.373 22.92C321.92 23.0533 321.413 23.24 320.853 23.48C320.32 23.6933 319.813 23.9467 319.333 24.24C318.853 24.5067 318.426 24.8 318.053 25.12C317.68 25.4133 317.44 25.6933 317.333 25.96C317.52 26.2267 317.76 26.4133 318.053 26.52C318.346 26.6267 318.626 26.7067 318.893 26.76C320.28 27 321.44 25.72 322.373 22.92ZM317.813 23.56C318.96 21.9867 320.026 20.84 321.013 20.12C322 19.4 322.8 19.0933 323.413 19.2C323.946 19.28 324.226 19.5467 324.253 20C324.413 20.6133 324.373 21.4133 324.133 22.4C324.346 22.32 324.52 22.28 324.653 22.28C324.786 22.2533 324.866 22.24 324.893 22.24C325 22.24 325.053 22.2667 325.053 22.32C325.08 22.4533 324.986 22.5333 324.773 22.56C324.56 22.5867 324.32 22.64 324.053 22.72C323.706 23.92 323.293 24.8667 322.813 25.56C322.36 26.2533 321.76 26.6933 321.013 26.88C320.586 26.96 320.266 27.0267 320.053 27.08C319.84 27.16 319.666 27.2267 319.533 27.28C319.426 27.3333 319.306 27.3733 319.173 27.4C319.066 27.4267 318.906 27.4267 318.693 27.4C318.4 27.3467 318.093 27.2667 317.773 27.16C317.453 27.0533 317.186 26.92 316.973 26.76C316.84 26.92 316.773 27 316.773 27C316.586 26.9467 316.426 26.8267 316.293 26.64C316.16 26.4533 316.066 26.28 316.013 26.12C315.746 25.24 315.853 23.9467 316.333 22.24C316.813 20.5333 317.786 18.3733 319.253 15.76C319.493 15.3067 320.04 15.08 320.893 15.08V15.16C320.946 15.1067 321.013 15.08 321.093 15.08C321.253 15.08 321.333 15.2133 321.333 15.48C321.333 15.6133 321.293 15.8133 321.213 16.08C321.133 16.32 321.026 16.5733 320.893 16.84C320.76 17.1067 320.613 17.36 320.453 17.6C320.293 17.8133 320.146 17.9467 320.013 18C319.613 18.5333 319.293 19.0533 319.053 19.56C318.813 20.0667 318.613 20.56 318.453 21.04C318.32 21.52 318.2 21.9733 318.093 22.4C318.013 22.8267 317.92 23.2133 317.813 23.56Z" fill="#F0E6DA"/>
</svg>
