<svg width="72" height="71" viewBox="0 0 72 71" fill="none" xmlns="http://www.w3.org/2000/svg">
<path d="M35.6405 0.0526428C45.4286 0.0526428 54.2903 4.02087 60.7053 10.4358C67.1202 16.8496 71.0873 25.7113 71.0873 35.4994C71.0873 45.2887 67.1202 54.1503 60.7053 60.5641C54.2903 66.979 45.4286 70.9473 35.6405 70.9473C25.8525 70.9473 16.992 66.979 10.5759 60.5641C4.1621 54.1503 0.193848 45.2887 0.193848 35.4994C0.193848 25.7113 4.1621 16.8508 10.5759 10.4358C16.9908 4.02087 25.8525 0.0538559 35.6405 0.0538559M59.1055 12.0369C53.1001 6.0315 44.8046 2.31746 35.6405 2.31746C26.4765 2.31746 18.181 6.0315 12.1757 12.0369C6.17152 18.041 2.45745 26.3365 2.45745 35.5005C2.45745 44.6646 6.17152 52.9613 12.1757 58.9654C18.181 64.9708 26.4777 68.6849 35.6405 68.6849C44.8046 68.6849 53.1001 64.9708 59.1055 58.9654C65.1108 52.9613 68.8249 44.6658 68.8249 35.5005C68.8249 26.3377 65.1108 18.041 59.1055 12.0369Z" fill="#F0E6DA"/>
</svg>
