<svg width="22" height="22" viewBox="0 0 22 22" fill="none" xmlns="http://www.w3.org/2000/svg">
<path d="M14.3803 0H7.6318C1.4652 0 0 1.4663 0 7.6197V14.3693C0 20.5337 1.4553 22 7.6197 22H14.3693C20.5337 22 22 20.5447 22 14.3803V7.6318C22 1.4652 20.5447 0 14.3803 0ZM17.7606 15.697H16.1557C15.5485 15.697 15.3659 15.2053 14.2769 14.1163C13.3265 13.2 12.925 13.0856 12.6841 13.0856C12.3519 13.0856 12.2606 13.1769 12.2606 13.6356V15.0788C12.2606 15.4693 12.1341 15.6981 11.1144 15.6981C10.125 15.6309 9.16556 15.3299 8.31502 14.82C7.46447 14.31 6.74702 13.6055 6.2216 12.7644C4.97459 11.214 4.10743 9.39339 3.6894 7.4481C3.6894 7.2072 3.7807 6.9894 4.2394 6.9894H5.8443C6.2568 6.9894 6.4053 7.1731 6.5659 7.5966C7.3447 9.889 8.6735 11.8822 9.2125 11.8822C9.4193 11.8822 9.5095 11.7909 9.5095 11.275V8.9144C9.4413 7.8375 8.8693 7.7462 8.8693 7.3568C8.87665 7.25409 8.92371 7.15829 9.00052 7.0897C9.07732 7.02111 9.17782 6.98513 9.2807 6.9894H11.8019C12.1462 6.9894 12.2606 7.161 12.2606 7.5735V10.7591C12.2606 11.1034 12.4091 11.2178 12.5125 11.2178C12.7193 11.2178 12.8788 11.1034 13.2572 10.725C14.0699 9.73384 14.734 8.62958 15.2284 7.447C15.2793 7.30516 15.3749 7.18375 15.501 7.10118C15.627 7.01861 15.7766 6.97937 15.9269 6.9894H17.5318C18.0125 6.9894 18.1148 7.2303 18.0125 7.5735C17.429 8.88079 16.7069 10.1217 15.8587 11.275C15.686 11.539 15.6167 11.6765 15.8587 11.9856C16.0182 12.2265 16.5803 12.6962 16.9587 13.1428C17.5084 13.6915 17.965 14.3261 18.3106 15.0216C18.4481 15.4682 18.2182 15.697 17.7606 15.697Z" fill="#8D1342"/>
</svg>
