<svg width="27" height="24" viewBox="0 0 27 24" fill="none" xmlns="http://www.w3.org/2000/svg">
<path d="M26.7713 23.243C26.597 23.2694 26.3937 23.3011 26.2194 23.3011C24.4848 23.3011 23.2122 22.4324 23.2122 20.6397C21.4221 22.5196 19.1356 23.3301 17.0287 23.214C10.927 22.8971 9.48014 15.9004 13.2108 11.8529C16.0148 8.78755 22.5785 7.77366 26.7713 7.28521V15.3486V23.243ZM23.1858 9.13343C19.0511 10.2318 13.9053 11.7077 14.6287 16.9697C15.1172 20.6133 18.9323 23.3301 23.1831 19.0793L23.1858 9.13343ZM6.38843 20.3492C6.38843 22.2001 6.84779 22.4615 8.81743 21.8542V22.8654C8.00687 23.272 6.70526 23.4727 5.80757 23.5017C4.04387 23.5017 2.80029 22.6357 2.80029 20.843V8.41261H0.635254V6.93673H2.80029C2.80029 5.75125 2.77387 4.39681 2.83196 3.24037C2.91644 1.56381 4.16001 0.726852 5.83658 0.726852C6.01083 0.726852 6.21417 0.753263 6.38843 0.784948V6.93673H10.3488V8.41261H6.38843V20.3492Z" fill="#F0E6DA"/>
</svg>
