<svg width="22" height="25" viewBox="0 0 22 25" fill="none" xmlns="http://www.w3.org/2000/svg">
<path d="M18.7778 3.21705C20.7973 5.23331 21.9523 7.95479 21.9986 10.806C22.0449 13.6572 20.9788 16.4147 19.0259 18.4953L18.7778 18.7515L13.592 23.9285C12.9341 24.5851 12.0507 24.9674 11.121 24.998C10.1912 25.0286 9.28459 24.7052 8.58473 24.0932L8.40874 23.9285L3.22176 18.7503C1.1589 16.6905 0 13.8967 0 10.9837C0 8.07063 1.1589 5.27689 3.22176 3.21705C5.28462 1.15721 8.08246 0 10.9998 0C13.9171 0 16.7149 1.15721 18.7778 3.21705ZM10.9998 7.32248C10.5183 7.32248 10.0415 7.41718 9.59665 7.60117C9.1518 7.78516 8.7476 8.05484 8.40712 8.39482C8.06665 8.73479 7.79657 9.1384 7.61231 9.5826C7.42805 10.0268 7.33321 10.5029 7.33321 10.9837C7.33321 11.4645 7.42805 11.9406 7.61231 12.3848C7.79657 12.829 8.06665 13.2326 8.40712 13.5725C8.7476 13.9125 9.1518 14.1822 9.59665 14.3662C10.0415 14.5502 10.5183 14.6449 10.9998 14.6449C11.9722 14.6449 12.9048 14.2592 13.5924 13.5725C14.2801 12.8859 14.6664 11.9547 14.6664 10.9837C14.6664 10.0127 14.2801 9.08143 13.5924 8.39482C12.9048 7.70821 11.9722 7.32248 10.9998 7.32248Z" fill="#8D1342"/>
</svg>
