<svg width="54" height="64" viewBox="0 0 54 64" fill="none" xmlns="http://www.w3.org/2000/svg">
<path d="M48.8441 0.556217C47.8276 1.73642 45.2902 4.97862 44.1839 5.69413L43.4025 6.0717C37.6836 7.96741 31.8751 7.92516 26.1114 7.50536C25.1873 13.3562 26.2513 18.7001 27.3576 24.007C28.6936 30.6605 30.0295 37.314 27.5424 44.976C27.3576 45.5648 27.2203 46.1536 26.8032 46.6605C25.7418 48.0493 22.885 49.5648 21.2718 50.6578C23.714 42.869 22.7477 37.0605 21.1794 29.314C19.7959 22.407 18.4124 15.545 21.3167 7.46048C21.3642 7.33639 21.4091 7.2097 21.454 7.12521C14.4942 6.45195 7.48698 5.82091 0.617013 7.84071L0.0625 8.00702C1.12389 6.78722 3.56615 3.50275 4.76483 2.83213C4.94964 2.70275 5.17933 2.6209 5.41168 2.53642C12.6486 0.0941734 19.9807 0.809639 27.3576 1.48291C34.4599 2.11657 41.6044 2.70277 48.8414 0.558876M33.4883 21.9054C33.8552 21.4829 34.2724 20.9364 34.914 21.0631C35.3312 21.0631 36.9444 21.4433 37.4513 21.57C37.4988 21.57 37.4988 21.6097 37.4988 21.6968C37.8685 19.9701 37.4038 18.1166 36.1603 16.8123C34.6368 15.1278 32.1497 14.3251 29.5226 14.5364C29.7972 14.2011 30.0744 13.8631 30.3517 13.57C31.5503 12.0545 33.9952 9.14758 34.8691 8.98125C37.9582 8.43207 40.8625 9.65459 42.5259 11.6321C45.8869 15.7166 42.6157 19.2941 39.3893 22.1166C45.4725 24.0519 49.3457 27.1252 51.5133 30.7054C54.048 34.8717 54.1879 39.7984 52.5747 44.4321C51.6058 47.4209 49.9926 50.0717 48.0071 52.3899C45.887 54.8295 43.2599 56.8942 40.3556 58.5364C35.1939 61.4829 30.122 62.8717 25.417 63.0407C13.2454 63.5054 2.41235 55.6743 0.519277 44.5588C-0.309766 39.7166 0.704108 34.4545 4.16285 29.5278C4.99454 28.3054 8.22096 24.5166 9.69687 23.5899C9.92657 23.4209 10.2038 23.339 10.848 23.0856L11.4025 22.8321L11.0778 23.2942C7.25465 28.2631 6.14573 33.7364 7.06982 38.7872C8.45332 46.7449 14.8137 53.8182 23.112 56.5562C28.2341 58.2407 34.0401 58.2407 39.8962 55.8407C42.2011 54.8744 44.0916 53.4829 45.4724 51.5898C46.8559 49.7364 47.7325 47.3364 48.0071 44.3476C48.3319 40.5562 46.951 37.0632 44.3688 34.1985C42.246 31.8856 38.7873 29.6546 35.1464 28.2209C33.3035 27.5054 31.4131 26.9985 29.6599 26.7899L33.4883 21.9054Z" fill="#FF5733"/>
</svg>
