<svg width="81" height="305" viewBox="0 0 81 305" fill="none" xmlns="http://www.w3.org/2000/svg">
<path d="M-138 51.8204L-137.428 53.1694C-78.8732 43.521 -20.4969 56.099 15.3091 87.6518C40.8691 110.236 54.4976 142.382 48.9178 182.983C46.534 199.046 39.7871 214.249 27.7716 228.37C16.1231 242.337 -1.14207 255.375 -24.5469 267.108C-30.7687 270.187 -37.0595 272.806 -43.3862 274.986L-31.0493 304.085C-24.9175 300.371 -18.9437 296.362 -13.1611 292.093C8.6209 276.532 26.1795 258.549 40.1748 239.669C54.8441 219.598 65.2981 198.014 71.6876 176.34C83.3 137.7 82.5664 104.897 72.8898 78.2924C59.0959 39.972 25.6436 12.6911 -17.4681 0.719875L-138 51.8204Z" fill="#FF5733"/>
</svg>
