<svg width="31" height="34" viewBox="0 0 31 34" fill="none" xmlns="http://www.w3.org/2000/svg">
<path d="M25.8415 4.53359C28.5265 7.21831 30.0622 10.842 30.1237 14.6385C30.1853 18.435 28.7679 22.1066 26.1713 24.877L25.8415 25.2182L18.9466 32.1115C18.0717 32.9858 16.8973 33.4948 15.6611 33.5356C14.4249 33.5763 13.2195 33.1457 12.289 32.3308L12.055 32.1115L5.15847 25.2166C2.41573 22.4739 0.874878 18.7539 0.874878 14.8751C0.874878 10.9963 2.41573 7.27633 5.15847 4.53359C7.9012 1.79085 11.6212 0.25 15.5 0.25C19.3788 0.25 23.0987 1.79085 25.8415 4.53359ZM15.5 10.0001C14.8598 10.0001 14.2258 10.1262 13.6344 10.3712C13.0429 10.6162 12.5055 10.9753 12.0528 11.4279C11.6001 11.8806 11.241 12.418 10.9961 13.0095C10.7511 13.601 10.625 14.2349 10.625 14.8751C10.625 15.5153 10.7511 16.1492 10.9961 16.7407C11.241 17.3321 11.6001 17.8696 12.0528 18.3222C12.5055 18.7749 13.0429 19.134 13.6344 19.379C14.2258 19.624 14.8598 19.7501 15.5 19.7501C16.7929 19.7501 18.0329 19.2365 18.9471 18.3222C19.8614 17.408 20.375 16.168 20.375 14.8751C20.375 13.5822 19.8614 12.3422 18.9471 11.4279C18.0329 10.5137 16.7929 10.0001 15.5 10.0001Z" fill="#8D1342"/>
</svg>
