<svg width="129" height="129" viewBox="0 0 129 129" fill="none" xmlns="http://www.w3.org/2000/svg">
<path d="M64.4999 0C82.3107 0 98.4371 7.22085 110.109 18.8917C121.78 30.5639 129 46.6888 129 64.5007C129 82.3112 121.78 98.4361 110.109 110.108C98.4371 121.78 82.3107 129 64.4999 129C46.6892 129 30.5629 121.779 18.8906 110.108C7.2183 98.4361 0 82.3112 0 64.4993C0 46.6901 7.2183 30.5639 18.8906 18.8917C30.5629 7.21953 46.6892 0 64.4999 0ZM108.56 20.4415C97.2833 9.16665 81.7061 2.19133 64.4999 2.19133C47.2938 2.19133 31.7167 9.16665 20.4404 20.4415C9.16541 31.7177 2.19133 47.2933 2.19133 64.4993C2.19133 81.7066 9.16541 97.2836 20.4404 108.558C31.7167 119.835 47.2938 126.809 64.4999 126.809C81.7061 126.809 97.2833 119.835 108.56 108.558C119.835 97.2836 126.809 81.7066 126.809 64.4993C126.809 47.2933 119.835 31.7163 108.56 20.4415Z" fill="#F0E6DA"/>
</svg>
