<svg width="63" height="63" viewBox="0 0 63 63" fill="none" xmlns="http://www.w3.org/2000/svg">
<path d="M7.8944 42.0236C8.22767 42.753 8.2549 43.4771 7.97611 44.1958C7.69838 44.9145 7.19256 45.4418 6.45872 45.7777C5.72915 46.1092 5.00123 46.1456 4.27486 45.8867C3.54743 45.6268 3.01225 45.1199 2.66936 44.3658C2.46961 43.9295 2.36813 43.5284 2.36493 43.1626C2.35852 42.7957 2.42156 42.4198 2.55401 42.0348L3.46732 42.3043C3.25582 42.946 3.26167 43.5118 3.48492 44.0017C3.7039 44.483 4.05799 44.8017 4.54722 44.9578C5.03538 45.115 5.53158 45.0787 6.03576 44.8487C6.53353 44.6209 6.8844 44.2691 7.08842 43.7931C7.29138 43.3172 7.28498 42.8412 7.06921 42.3652C6.93782 42.0765 6.76744 41.8465 6.55808 41.6754C6.34979 41.5043 6.0817 41.3513 5.75377 41.2165L6.07101 40.3839C6.49722 40.5315 6.85667 40.7299 7.14935 40.9791C7.4431 41.2283 7.69145 41.5759 7.8944 42.0219M6.30973 37.6855L1.79772 38.7443L2.19828 40.4561L1.32028 40.6615L0.296416 36.2817L1.17447 36.0763L1.57504 37.7881L6.087 36.7293L6.30973 37.6855ZM5.63837 33.0185C5.63516 33.3993 5.53904 33.7602 5.34997 34.1014L4.62736 33.7212C4.74486 33.5147 4.80518 33.288 4.80838 33.041C4.81265 32.7083 4.61505 32.4158 4.21555 32.1634L0 34.4287L0.0128111 33.3378L3.24938 31.6468L0.0480662 30.0906L0.0592637 29.0366L4.36136 31.2473C5.22232 31.6837 5.64798 32.2746 5.63837 33.0201M6.74878 29.0382L4.73469 28.6242L4.84207 28.0965C4.02705 27.4494 2.8061 26.959 1.17926 26.6253L0.411766 26.468L1.18728 22.6819L5.75856 23.6204L5.89635 22.9465L7.88315 23.4921L7.72292 24.283L6.55969 24.0439L5.77616 27.8686L6.92022 28.2007L6.74878 29.0382ZM5.05033 27.0809L5.56307 24.575L1.85219 23.8129L1.45964 25.7301L2.07976 25.8568C3.34555 26.1167 4.33571 26.5248 5.05033 27.0809ZM7.15414 22.3145L2.15183 19.9401L2.56203 19.0738L6.21198 20.8064L3.76051 16.5405L4.14988 15.7175L9.15219 18.0919L8.74199 18.9582L5.09839 17.2288L7.54669 21.485L7.15414 22.3145ZM9.6729 17.2047L9.02877 14.7132C8.68482 14.956 8.327 15.0779 7.95528 15.079C7.58141 15.079 7.22355 14.9383 6.88173 14.657C6.46728 14.3137 6.2542 13.8982 6.24245 13.4105C6.23177 12.9217 6.42937 12.4308 6.83528 11.9377L8.39751 10.0366L12.6708 13.5629L12.0571 14.3089L10.5798 13.0896L9.80111 14.0362L10.402 16.3191L9.6729 17.2047ZM9.01596 13.6576L9.92604 12.5506L8.46156 11.3426L7.56111 12.4351C7.33039 12.7175 7.21343 12.9907 7.21023 13.2549C7.20809 13.5201 7.32291 13.7479 7.55471 13.9383C7.77903 14.1233 8.02311 14.1896 8.28695 14.1372C8.55293 14.0859 8.79592 13.9255 9.01596 13.656M19.7384 8.48525C19.027 8.85424 18.3059 8.91841 17.5753 8.67776C16.8436 8.43497 16.2924 7.95473 15.9218 7.23706C15.5532 6.52475 15.4801 5.79907 15.7023 5.06001C15.9255 4.31881 16.4046 3.75782 17.1395 3.37706C17.5657 3.15567 17.9609 3.03374 18.3252 3.01128C18.6905 2.98882 19.0686 3.03376 19.4596 3.14607L19.2352 4.07337C18.5847 3.89368 18.0208 3.9279 17.5433 4.17604C17.0754 4.41882 16.7752 4.78837 16.6428 5.28464C16.5114 5.78198 16.5728 6.27662 16.827 6.76862C17.0802 7.25526 17.4487 7.5884 17.9326 7.76808C18.4186 7.94777 18.8929 7.91732 19.3554 7.67667C19.6364 7.53122 19.857 7.3494 20.0172 7.13121C20.1774 6.91409 20.3168 6.63866 20.4354 6.30496L21.2814 6.57928C21.1554 7.01245 20.9753 7.38254 20.7414 7.6895C20.5085 7.99539 20.1742 8.26064 19.7384 8.48525ZM27.0688 5.13061C26.6629 5.80015 26.0513 6.23063 25.2342 6.42208C24.4181 6.61459 23.6826 6.5023 23.0278 6.08518C22.373 5.6702 21.9543 5.07176 21.7717 4.28992C21.5911 3.51984 21.7038 2.79953 22.1097 2.12893C22.5156 1.45939 23.1272 1.02891 23.9444 0.83746C24.7605 0.644939 25.4959 0.757229 26.1507 1.17435C26.8055 1.58934 27.2242 2.18723 27.4069 2.968C27.5885 3.73808 27.4758 4.45893 27.0688 5.13061ZM23.6031 5.29585C24.0357 5.58784 24.5164 5.67182 25.0451 5.54775C25.5739 5.42475 25.9659 5.13755 26.2212 4.6862C26.4776 4.23592 26.5417 3.74128 26.4135 3.20222C26.2885 2.66745 26.0092 2.25406 25.5755 1.96207C25.1429 1.67115 24.6621 1.58772 24.1334 1.71178C23.6046 1.83479 23.2126 2.12199 22.9573 2.57333C22.701 3.02254 22.6369 3.51719 22.7651 4.05731C22.89 4.59208 23.1694 5.00493 23.6031 5.29585ZM29.2318 5.5429L29.2928 0L31.7763 0.0288849C32.415 0.0363731 32.8957 0.205326 33.2183 0.535816C33.4639 0.785023 33.5842 1.0979 33.5788 1.47438C33.5746 2.02199 33.3064 2.43052 32.7745 2.70004C33.5051 2.95673 33.8667 3.41502 33.8592 4.07494C33.8539 4.55944 33.6648 4.93221 33.292 5.19318C32.9213 5.45308 32.422 5.57928 31.7939 5.57179L29.2318 5.5429ZM30.2252 2.34709L31.5535 2.36153C31.8739 2.36474 32.1288 2.30271 32.3179 2.17544C32.5069 2.04923 32.6031 1.85942 32.6063 1.60593C32.6084 1.38454 32.5256 1.21072 32.3579 1.08451C32.1902 0.957233 31.9509 0.892525 31.64 0.890385L30.2413 0.874325L30.2252 2.34709ZM30.1981 4.68943L31.8115 4.70867C32.149 4.71188 32.4118 4.64876 32.5998 4.51934C32.7889 4.38993 32.885 4.19848 32.8882 3.945C32.8935 3.44766 32.5165 3.19527 31.757 3.18778L30.2157 3.17011L30.1981 4.68943ZM34.9407 5.74344L36.0527 0.312855L38.1917 0.752415C38.8219 0.88076 39.2888 1.14919 39.5921 1.55776C39.8976 1.96526 39.9927 2.44818 39.8773 3.00648C39.7577 3.59045 39.4586 4.0033 38.98 4.24502C38.5047 4.48567 37.954 4.54234 37.3281 4.41506L36.2514 4.19366L35.8941 5.93918L34.9407 5.74344ZM36.4277 3.33216L37.5348 3.55997C37.8927 3.63377 38.1955 3.60169 38.4433 3.46372C38.6922 3.32575 38.8471 3.10971 38.908 2.81559C38.9699 2.50542 38.9139 2.24444 38.7398 2.03267C38.5656 1.82197 38.2975 1.67919 37.9354 1.60432L36.8283 1.37807L36.4277 3.33216ZM40.0728 6.99481L42.1974 1.87703L45.9884 3.45407L45.6536 4.25946L42.763 3.05622L42.2102 4.38617L44.7739 5.45306L44.4391 6.25684L41.8754 5.18995L41.3049 6.56484L44.2323 7.78414L43.899 8.58792L40.0728 6.99481ZM44.9117 9.18792L48.2139 4.73913L49.0472 5.35842L48.8356 8.46758L51.7502 7.37024L52.5818 7.98948L49.2795 12.4383L48.4975 11.8575L50.8673 8.66655L47.9064 9.72056L47.8823 9.70132L48.0393 6.58252L45.6792 9.75909L44.9117 9.18792ZM50.2489 13.5148L54.5525 10.0286L57.1354 13.2244L56.4592 13.7731L54.4885 11.3345L53.3701 12.241L55.1166 14.402L54.4388 14.949L52.6924 12.7896L51.5387 13.7249L53.5319 16.194L52.8558 16.7411L50.2489 13.5148ZM53.5063 17.7101L58.4204 15.1592L58.8691 16.0255L56.8262 17.0844L58.0407 19.4331L60.0852 18.3727L60.5322 19.239L55.6164 21.7883L55.1678 20.9219L57.2395 19.847L56.025 17.4999L53.9533 18.5748L53.5063 17.7101ZM56.1212 23.1423L61.5112 21.8781L61.7323 22.8246L59.4923 23.3525L60.0949 25.9274L62.3347 25.4012L62.5575 26.3493L57.1675 27.6136L56.9448 26.667L59.2168 26.1328L58.6143 23.5578L56.3423 24.0905L56.1212 23.1423ZM58.0903 33.7773C57.537 33.2222 57.2652 32.5249 57.2748 31.6853C57.2855 30.8468 57.5701 30.1585 58.1288 29.6205C58.6896 29.0836 59.3701 28.8189 60.1702 28.8264C60.9606 28.836 61.6325 29.1184 62.1858 29.6735C62.7381 30.2286 63.0094 30.9259 62.9998 31.7655C62.9901 32.604 62.706 33.2923 62.1474 33.8303C61.5876 34.3683 60.9071 34.6324 60.106 34.6228C59.3155 34.6143 58.6437 34.3324 58.0903 33.7773ZM58.7569 30.3681C58.3713 30.72 58.1753 31.1676 58.1689 31.711C58.1625 32.2564 58.3473 32.7056 58.7233 33.0586C59.0982 33.4147 59.5629 33.5961 60.1172 33.6025C60.6652 33.6078 61.1321 33.4346 61.5177 33.0827C61.9054 32.7297 62.1019 32.2821 62.1073 31.7399C62.1126 31.1944 61.9278 30.7452 61.5529 30.3922C61.1758 30.0361 60.7112 29.8548 60.1589 29.8483C59.6109 29.8419 59.1436 30.0152 58.7569 30.3681ZM57.113 35.7731L62.4758 37.1432L61.5544 40.7577L60.7053 40.5395L61.3862 37.862L56.8743 36.7084L57.113 35.7731ZM54.6006 44.937C54.3304 44.2 54.3747 43.453 54.7336 42.6958C55.0925 41.9364 55.6383 41.4299 56.3711 41.1764C57.105 40.923 57.8335 40.9679 58.5566 41.3112C59.2723 41.6513 59.7647 42.1888 60.0339 42.9236C60.3042 43.6605 60.2598 44.4076 59.9009 45.1648C59.542 45.9242 58.9956 46.4306 58.2618 46.6841C57.5301 46.9376 56.8017 46.8926 56.0764 46.5493C55.3628 46.2092 54.8709 45.6717 54.6006 44.937ZM56.6307 42.1182C56.1329 42.2765 55.7676 42.6016 55.5348 43.0936C55.3019 43.5845 55.2822 44.0701 55.4755 44.5503C55.6678 45.0295 56.0138 45.3878 56.5137 45.6252C57.0104 45.8605 57.5072 45.8996 58.0039 45.7424C58.5017 45.5841 58.8669 45.2589 59.0998 44.7669C59.3327 44.2771 59.353 43.7915 59.1607 43.3102C58.9684 42.8311 58.6212 42.4727 58.1192 42.2353C57.6236 42 57.1284 41.961 56.6307 42.1182ZM47.791 51.3591L48.1691 51.8292C48.8325 51.2912 49.4979 51.0404 50.1655 51.0767C50.8321 51.1142 51.3929 51.4136 51.8479 51.9751C52.2987 52.5345 52.4696 53.1415 52.3606 53.796C52.2538 54.4506 51.8676 55.0469 51.2022 55.5849L51.5307 55.9907L50.7808 56.5988L50.4524 56.1913C49.788 56.7303 49.124 56.9833 48.4607 56.9501C47.7963 56.918 47.2388 56.6223 46.788 56.063C46.3383 55.5047 46.1636 54.8961 46.264 54.2372C46.3644 53.5784 46.7489 52.9778 47.4176 52.4356L47.0411 51.9687L47.791 51.3591ZM48.7106 52.4998L50.6559 54.9062C51.0821 54.5618 51.332 54.1832 51.4057 53.7704C51.4794 53.3575 51.3651 52.9645 51.0628 52.5912C50.7584 52.2126 50.3968 52.0163 49.9781 52.0024C49.5593 51.9896 49.1374 52.1554 48.7123 52.4998M47.9624 53.1078C47.5319 53.4565 47.2799 53.8351 47.2062 54.2437C47.1335 54.6522 47.251 55.0479 47.5586 55.4308C47.8609 55.803 48.2214 55.9966 48.6401 56.0116C49.0567 56.0255 49.4787 55.8597 49.906 55.5143L47.9624 53.1078ZM43.9728 54.2998L46.2704 59.3438L45.4004 59.7417L43.7228 56.0597L42.8527 60.9048L42.026 61.2834L39.7284 56.2394L40.5984 55.8416L42.2727 59.5154L43.138 54.6816L43.9728 54.2998ZM36.9869 56.8603L37.8232 61.423L39.5489 61.1069L39.7123 61.9941L35.2948 62.8059L35.1314 61.9187L36.8587 61.6011L36.0207 57.0368L36.9869 56.8603ZM33.2616 57.4571L33.2007 63L32.2265 62.9888L32.2537 60.685L29.6116 60.6561L29.586 62.9599L28.6134 62.9487L28.6759 57.4057L29.6484 57.417L29.6212 59.7529L32.2634 59.7818L32.289 57.4459L33.2616 57.4571ZM27.2498 57.1892L25.8799 62.5588L21.9031 61.5433L22.1177 60.6994L25.1524 61.4743L25.5082 60.0786L22.8195 59.3903L23.0343 58.5464L25.7244 59.2331L26.093 57.7924L23.0198 57.0063L23.2346 56.1624L27.2498 57.1892ZM19.8537 54.5886C20.5779 54.9308 21.0651 55.4672 21.315 56.1977C21.565 56.9261 21.5169 57.6555 21.1708 58.386C20.8279 59.1112 20.2949 59.6085 19.5718 59.878C18.8486 60.1486 18.1131 60.1064 17.3654 59.7513C16.9328 59.5448 16.5963 59.3037 16.356 59.0277C16.1167 58.7497 15.9239 58.4213 15.7776 58.0427L16.6492 57.6576C16.9012 58.2865 17.2698 58.716 17.7547 58.9459C18.2322 59.1716 18.7082 59.1871 19.1824 58.9924C19.6567 58.7967 20.0123 58.4491 20.2495 57.9496C20.4845 57.4523 20.5267 56.956 20.3761 56.4608C20.2255 55.9667 19.9146 55.6073 19.4435 55.3827C19.1573 55.248 18.8796 55.1816 18.6104 55.1838C18.3391 55.1881 18.0347 55.2442 17.6971 55.3522L17.4055 54.5116C17.8253 54.3511 18.2279 54.2709 18.6136 54.2709C18.9981 54.2709 19.4115 54.3768 19.8537 54.5886ZM17.2933 53.4142L11.868 56.172L11.1726 55.5977L12.839 49.7387L13.6321 50.3933L13.2155 51.7826L15.2344 53.4511L16.5243 52.7805L17.2933 53.4142ZM14.4124 53.8907L12.9415 52.6762L12.2718 54.9961L14.4124 53.8907ZM7.3288 4.03807C7.183 3.89207 7.18456 3.653 7.33037 3.50862C7.47778 3.36102 7.7149 3.36262 7.86071 3.50862L17.6666 13.3544C17.814 13.5004 17.8124 13.7394 17.6666 13.8838C17.5192 14.0314 17.2821 14.0314 17.1347 13.8838L7.3288 4.03807ZM58.9861 54.2452C59.1303 54.3928 59.1303 54.6303 58.9845 54.7779C58.8371 54.9223 58.5999 54.9223 58.4525 54.7747L48.6466 44.9305C48.5008 44.7829 48.5023 44.5455 48.6481 44.3979C48.7956 44.2535 49.0327 44.2535 49.1785 44.3995L58.9861 54.2452ZM4.18831 54.457C4.0409 54.6014 3.80378 54.6014 3.65797 54.4538C3.51216 54.3078 3.51377 54.0688 3.65797 53.9244L13.4927 44.1043C13.6385 43.9584 13.8772 43.96 14.0214 44.1043C14.1689 44.2519 14.1689 44.4894 14.0214 44.637L4.18831 54.457Z" fill="#F0E6DA"/>
</svg>
