<svg width="149" height="29" viewBox="0 0 149 29" fill="none" xmlns="http://www.w3.org/2000/svg">
<path d="M26.0806 21.3061C26.7724 21.3061 27.4087 21.1028 28.0159 20.7279C32.7869 17.7207 31.5724 7.48438 26.078 7.48438C25.3863 7.48438 24.75 7.66123 24.1427 8.03615C20.1559 10.5497 20.1823 18.2408 24.1427 20.7279C24.75 21.1028 25.3862 21.3061 26.0806 21.3061ZM26.5691 6.24345C35.6173 6.24345 37.5843 18.1537 28.9084 21.8553C27.8391 22.3174 26.7433 22.5207 25.5843 22.5207C16.5361 22.5207 14.6008 10.6078 23.245 6.90883C24.3143 6.47583 25.41 6.24345 26.5691 6.24345ZM0.734131 0.0890083H20.6549V1.59398H12.676V20.0916C12.676 21.7972 11.3163 22.6078 9.6397 22.6078C9.43904 22.6078 8.91628 22.5761 8.74202 22.5497V1.59398H0.734131V0.0890083ZM131.792 1.71009L131.76 20.0916C131.675 21.7682 130.432 22.6078 128.724 22.6078C128.552 22.6078 128.38 22.5761 128.203 22.5497V19.9754C125.632 22.1721 122.857 23.4157 119.62 21.8553C117.624 20.9022 116.497 19.3972 116.122 17.7497C114.675 11.4765 121.323 8.09428 126.384 6.99593C127.018 6.85072 127.625 6.70546 128.232 6.59193V2.60519C128.293 0.928621 129.534 0.0916672 131.242 0.0916672C131.414 0.118071 131.588 0.118059 131.792 0.147102V1.71009ZM128.203 7.92004C123.984 9.01839 118.17 11.157 119.591 16.7121C119.995 18.2962 121.122 19.6876 122.944 20.2368C124.966 20.8441 126.788 19.7722 128.203 18.386V7.92004ZM144.834 19.9754C139.224 24.7464 133.877 21.4514 134.02 15.6692C134.02 13.2138 133.964 11.1596 134.049 8.72796C134.136 7.05403 135.38 6.24611 137.056 6.24611C137.26 6.24611 137.431 6.27245 137.605 6.27245V14.7134C137.605 15.2652 137.605 15.6956 137.663 16.2183C138.329 20.382 141.51 21.7101 144.834 18.3834L144.861 8.72796C144.948 7.05403 146.194 6.24611 147.871 6.24611C148.071 6.24611 148.246 6.27245 148.42 6.27245V21.3379C148.42 23.0408 148.071 23.9939 147.377 25.1213C146.712 26.2197 145.846 27.0884 144.803 27.722C142.78 28.9101 140.871 29.227 138.588 28.8494C137.547 28.6778 136.739 28.3609 136.219 27.8989C135.668 27.436 135.263 26.973 135.005 26.5101C134.889 26.2778 134.772 25.9609 134.685 25.7286C135.176 24.2263 136.708 23.8804 138.097 24.023C138.097 24.8917 138.096 25.8157 138.503 26.4811C139.889 28.6461 142.838 28.419 144.111 26.2514C144.602 25.4408 144.834 24.5141 144.834 23.5319V19.9754ZM105.819 6.24345C114.841 6.24345 116.808 18.1537 108.132 21.8553C107.092 22.3174 105.993 22.5207 104.837 22.5207C95.7889 22.5207 93.8509 10.6078 102.495 6.90883C103.564 6.47583 104.663 6.24345 105.822 6.24345M105.331 21.3061C106.025 21.3061 106.661 21.1028 107.269 20.7279C112.04 17.7207 110.796 7.48438 105.331 7.48438C104.636 7.48438 104 7.66123 103.396 8.03615C99.4034 10.5497 99.4034 18.2408 103.396 20.7279C104.003 21.1028 104.636 21.3061 105.331 21.3061ZM77.3176 0.60388C80.5545 0.170876 85.4417 -0.00343704 88.7077 0.778082C90.6166 1.24013 92.3249 2.19589 92.3777 4.39523C92.4384 5.95299 91.5697 7.48438 89.748 8.49824C89.2278 8.78867 88.6496 9.04737 88.0714 9.27707C88.9691 9.36684 89.8087 9.59922 90.6166 9.94246C93.1328 11.0408 94.6641 13.2956 94.7222 15.553C94.7803 19.3101 92.119 21.1028 88.911 22.114C84.8926 23.3286 81.5394 22.8085 77.3202 22.5788L77.3176 0.60388ZM81.1038 21.3352C85.4127 21.652 90.5031 20.9313 90.2391 15.4659C90.0675 11.3603 87.15 10.349 83.62 10.349H81.1038V21.3352ZM81.1038 9.10545C84.1137 9.13449 88.3644 9.10548 88.3328 5.05795C88.2773 1.18469 83.7916 1.53057 81.1038 1.58866V9.10545ZM65.5315 2.54709C65.6186 0.870525 66.8595 0.0335732 68.5678 0.0335732C68.7394 0.0599766 68.9137 0.0599842 69.0853 0.0916672V22.5497C68.882 22.5761 68.7104 22.6078 68.5387 22.6078C66.9467 22.6078 65.703 21.9107 65.5024 20.4084V20.1497L65.5315 2.54709Z" fill="#F0E6DA"/>
</svg>
